<?xml version="1.0" encoding="UTF-8"?>
<svg version="1.1" xmlns="http://www.w3.org/2000/svg" width="561" height="445">
<path d="M0 0 C0.85641586 -0.00175232 1.71283173 -0.00350464 2.59519958 -0.00531006 C5.39364719 -0.00967106 8.1920304 -0.00681288 10.99047852 -0.00341797 C12.94580599 -0.00409223 14.90113338 -0.00506327 16.85646057 -0.00631714 C20.93719284 -0.00778593 25.01790311 -0.00566431 29.09863281 -0.00097656 C34.33664142 0.00474681 39.57459908 0.00142015 44.81260586 -0.00454903 C48.84192798 -0.00815419 52.8712379 -0.00701672 56.90056038 -0.00442123 C58.83313058 -0.00375321 60.76570188 -0.00457605 62.6982708 -0.00690079 C65.38872107 -0.00942942 68.07908727 -0.00558493 70.76953125 0 C71.57106628 -0.00202423 72.37260132 -0.00404846 73.19842529 -0.00613403 C78.70334517 0.01512473 78.70334517 0.01512473 80.93188477 1.12939453 C81.91016396 17.54274544 81.85524686 33.71406838 80.93188477 50.12939453 C81.68808105 50.09386475 82.44427734 50.05833496 83.22338867 50.02172852 C86.66762335 49.86358835 90.11221107 49.71515094 93.55688477 49.56689453 C94.74668945 49.51082031 95.93649414 49.45474609 97.16235352 49.39697266 C98.31606445 49.34863281 99.46977539 49.30029297 100.65844727 49.25048828 C101.71628418 49.20335693 102.77412109 49.15622559 103.86401367 49.10766602 C106.93188477 49.12939453 106.93188477 49.12939453 112.93188477 50.12939453 C112.93188477 39.56939453 112.93188477 29.00939453 112.93188477 18.12939453 C110.29188477 18.45939453 107.65188477 18.78939453 104.93188477 19.12939453 C103.28561177 19.14288112 101.63750691 19.11099592 99.99438477 19.00830078 C99.16293945 18.95996094 98.33149414 18.91162109 97.47485352 18.86181641 C96.63567383 18.80574219 95.79649414 18.74966797 94.93188477 18.69189453 C94.06176758 18.6396875 93.19165039 18.58748047 92.29516602 18.53369141 C90.17366667 18.40546892 88.05270752 18.26835973 85.93188477 18.12939453 C85.93188477 12.51939453 85.93188477 6.90939453 85.93188477 1.12939453 C96.45603805 0.4487279 106.94818718 -0.08813084 117.49438477 0.31689453 C118.28433838 0.33486084 119.07429199 0.35282715 119.88818359 0.37133789 C123.36871079 0.54812054 125.55206676 0.85190468 128.39672852 2.93017578 C130.69418077 6.2214369 131.05669866 9.21248126 131.05886841 13.16555786 C131.06168823 13.95909668 131.06450806 14.7526355 131.06741333 15.57022095 C131.06437698 16.86239029 131.06437698 16.86239029 131.0612793 18.18066406 C131.06390778 19.55197479 131.06390778 19.55197479 131.06658936 20.95098877 C131.07098912 23.97141419 131.06807694 26.99178102 131.06469727 30.01220703 C131.06537073 32.10920218 131.06634111 34.20619726 131.06759644 36.30319214 C131.06907077 40.69627628 131.06692688 45.08934009 131.06225586 49.48242188 C131.05655171 55.12301306 131.05984359 60.76355674 131.06582832 66.40414619 C131.06943506 70.73286296 131.06829495 75.06156839 131.06570053 79.39028549 C131.06503194 81.47078329 131.06585733 83.55128211 131.06818008 85.63177872 C131.07070919 88.53351842 131.06686264 91.43518019 131.0612793 94.33691406 C131.06330353 95.20240875 131.06532776 96.06790344 131.06741333 96.95962524 C131.04615014 102.90086378 131.04615014 102.90086378 129.93188477 105.12939453 C113.76188477 105.12939453 97.59188477 105.12939453 80.93188477 105.12939453 C81.26188477 106.77939453 81.59188477 108.42939453 81.93188477 110.12939453 C81.94702774 112.18832829 81.90198668 114.24820692 81.81079102 116.30517578 C81.76245117 117.46210938 81.71411133 118.61904297 81.66430664 119.81103516 C81.60823242 121.00921875 81.5521582 122.20740234 81.49438477 123.44189453 C81.44217773 124.65941406 81.3899707 125.87693359 81.33618164 127.13134766 C81.20678598 130.13097432 81.07183029 133.13024459 80.93188477 136.12939453 C81.65255127 136.09386475 82.37321777 136.05833496 83.11572266 136.02172852 C86.40832162 135.86327533 89.70130482 135.71500085 92.99438477 135.56689453 C94.12811523 135.51082031 95.2618457 135.45474609 96.42993164 135.39697266 C98.08798828 135.32446289 98.08798828 135.32446289 99.77954102 135.25048828 C100.79024658 135.20335693 101.80095215 135.15622559 102.84228516 135.10766602 C105.93188477 135.12939453 105.93188477 135.12939453 112.93188477 136.12939453 C112.93188477 127.21939453 112.93188477 118.30939453 112.93188477 109.12939453 C116.56404724 107.91867371 119.24292705 108.1795381 123.05688477 108.44189453 C124.31758789 108.52052734 125.57829102 108.59916016 126.87719727 108.68017578 C127.88524414 108.82841797 128.89329102 108.97666016 129.93188477 109.12939453 C131.46346145 112.1925479 131.11560646 115.40773054 131.13500977 118.77001953 C131.14070984 119.52982117 131.14640991 120.2896228 131.15228271 121.07244873 C131.16173669 122.6830506 131.16826827 124.29367186 131.17211914 125.90429688 C131.18179239 128.35598085 131.21279727 130.8068148 131.24438477 133.25830078 C131.25091829 134.82470206 131.25616739 136.39110934 131.26000977 137.95751953 C131.27235657 138.68585999 131.28470337 139.41420044 131.29742432 140.16461182 C131.27629904 145.04851981 130.52577681 149.53550249 126.93188477 153.12939453 C125.55688302 153.28659758 124.17424411 153.37778839 122.79174805 153.44140625 C121.90268768 153.48274689 121.01362732 153.52408752 120.09762573 153.56668091 C118.62726364 153.62479446 118.62726364 153.62479446 117.12719727 153.68408203 C116.10369171 153.72612762 115.08018616 153.76817322 114.02566528 153.81149292 C102.49346489 154.24314481 90.96353311 154.28008347 79.42456055 154.25976562 C75.80326169 154.25438915 72.18208624 154.25975927 68.56079102 154.26611328 C54.65473616 154.26965839 40.8139902 153.95282978 26.93188477 153.12939453 C26.12927201 142.4935135 25.82328376 131.92193952 25.80688477 121.25439453 C25.80237305 120.01206055 25.79786133 118.76972656 25.79321289 117.48974609 C25.79514648 116.3215332 25.79708008 115.15332031 25.79907227 113.94970703 C25.8002002 112.90057129 25.80132812 111.85143555 25.80249023 110.77050781 C25.93188477 108.12939453 25.93188477 108.12939453 26.93188477 105.12939453 C16.37188477 105.12939453 5.81188477 105.12939453 -5.06811523 105.12939453 C-5.06811523 115.35939453 -5.06811523 125.58939453 -5.06811523 136.12939453 C3.39938621 135.68198581 3.39938621 135.68198581 11.86499023 135.20092773 C12.9157373 135.15282959 13.96648438 135.10473145 15.04907227 135.05517578 C16.12785645 134.9975708 17.20664062 134.93996582 18.31811523 134.88061523 C19.61193115 135.00376099 19.61193115 135.00376099 20.93188477 135.12939453 C23.01417585 138.25283116 23.16958934 138.66792375 22.90844727 142.14111328 C22.85688477 142.8984375 22.80532227 143.65576172 22.75219727 144.43603516 C22.68774414 145.22171875 22.62329102 146.00740234 22.55688477 146.81689453 C22.47180664 148.01282227 22.47180664 148.01282227 22.38500977 149.23291016 C22.24372448 151.19913034 22.08908571 153.16438277 21.93188477 155.12939453 C20.94188477 155.12939453 19.95188477 155.12939453 18.93188477 155.12939453 C18.93188477 154.46939453 18.93188477 153.80939453 18.93188477 153.12939453 C18.1360498 153.16492432 17.34021484 153.2004541 16.52026367 153.23706055 C12.86608158 153.39601879 9.21153188 153.54402919 5.55688477 153.69189453 C4.30520508 153.74796875 3.05352539 153.80404297 1.76391602 153.86181641 C-17.1271412 154.60361185 -17.1271412 154.60361185 -20.77270508 151.8347168 C-23.03080632 148.86207504 -23.19312366 145.69261983 -23.19509888 142.04853821 C-23.1979187 141.24514008 -23.20073853 140.44174194 -23.2036438 139.61399841 C-23.20161957 138.7416304 -23.19959534 137.86926239 -23.19750977 136.97045898 C-23.19926208 136.04489197 -23.2010144 135.11932495 -23.20281982 134.16571045 C-23.20721946 131.10801313 -23.20430769 128.05037368 -23.20092773 124.99267578 C-23.20160114 122.87086475 -23.20257148 120.7490538 -23.2038269 118.62724304 C-23.20530117 114.18288437 -23.20315735 109.73854579 -23.19848633 105.29418945 C-23.19277879 99.58399774 -23.19607624 93.87385292 -23.20205879 88.16366291 C-23.20566282 83.78437442 -23.20452673 79.40509715 -23.201931 75.02580833 C-23.20126183 72.91936424 -23.2020898 70.81291914 -23.20441055 68.70647621 C-23.20693561 65.77100526 -23.20309905 62.83561164 -23.19750977 59.90014648 C-23.199534 59.02170578 -23.20155823 58.14326508 -23.2036438 57.23820496 C-23.18237981 51.24365911 -23.18237981 51.24365911 -22.06811523 50.12939453 C-19.8817207 50.05680507 -17.69311134 50.0456567 -15.50561523 50.06689453 C-13.70930664 50.08042969 -13.70930664 50.08042969 -11.87670898 50.09423828 C-10.94987305 50.10583984 -10.02303711 50.11744141 -9.06811523 50.12939453 C-9.06811523 48.47939453 -9.06811523 46.82939453 -9.06811523 45.12939453 C-13.35811523 45.12939453 -17.64811523 45.12939453 -22.06811523 45.12939453 C-23.63118351 42.00325798 -23.25208002 38.66778831 -23.27124023 35.23486328 C-23.27979034 34.05830925 -23.27979034 34.05830925 -23.28851318 32.85798645 C-23.29796663 31.19610952 -23.30449853 29.53421381 -23.30834961 27.87231445 C-23.31803752 25.33722915 -23.34904928 22.80296074 -23.38061523 20.26806641 C-23.3871472 18.65283684 -23.39239691 17.03760148 -23.39624023 15.42236328 C-23.40858704 14.66698776 -23.42093384 13.91161224 -23.43365479 13.13334656 C-23.41468173 8.61995668 -22.87794829 5.70923813 -20.06811523 2.12939453 C-14.27506432 -0.76713093 -6.35230042 -0.01633107 0 0 Z M-5.06811523 18.12939453 C-5.39811523 28.68939453 -5.72811523 39.24939453 -6.06811523 50.12939453 C4.82188477 50.12939453 15.71188477 50.12939453 26.93188477 50.12939453 C26.95250977 45.59189453 26.97313477 41.05439453 26.99438477 36.37939453 C27.00348877 34.95401367 27.01259277 33.52863281 27.02197266 32.06005859 C27.02447021 30.9330957 27.02696777 29.80613281 27.02954102 28.64501953 C27.03477783 27.49291992 27.04001465 26.34082031 27.04541016 25.15380859 C27.02844933 21.93205702 27.02844933 21.93205702 25.93188477 18.12939453 C15.70188477 18.12939453 5.47188477 18.12939453 -5.06811523 18.12939453 Z M44.93188477 18.12939453 C44.89430054 20.05187012 44.89430054 20.05187012 44.85595703 22.01318359 C44.76176882 26.76930703 44.66157587 31.52528832 44.55957031 36.28125 C44.51626467 38.3394844 44.47458648 40.39775371 44.43457031 42.45605469 C44.37676201 45.41498332 44.31309781 48.37373693 44.24829102 51.33251953 C44.22322227 52.71241058 44.22322227 52.71241058 44.19764709 54.12017822 C44.17770187 54.98076843 44.15775665 55.84135864 44.13720703 56.72802734 C44.12166275 57.48303528 44.10611847 58.23804321 44.09010315 59.01593018 C43.92768637 61.18547628 43.62868029 63.06716625 42.93188477 65.12939453 C38.47412804 67.93627538 33.13383745 67.47910118 28.03735352 67.54345703 C27.08999832 67.56282318 26.14264313 67.58218933 25.1665802 67.60214233 C22.15093899 67.66175824 19.13525925 67.70825158 16.11938477 67.75439453 C14.07054031 67.79259086 12.02171163 67.83164355 9.97290039 67.87158203 C4.95931218 67.96905155 -0.05411494 68.04876313 -5.06811523 68.12939453 C-5.06811523 74.39939453 -5.06811523 80.66939453 -5.06811523 87.12939453 C-0.39075195 87.15066406 -0.39075195 87.15066406 4.38110352 87.17236328 C7.40619692 87.20299036 10.43107113 87.24207748 13.45605469 87.28198242 C15.55591055 87.30515749 17.65588256 87.31955698 19.75585938 87.32495117 C22.77751001 87.33424416 25.79733493 87.375243 28.81860352 87.42236328 C29.75524338 87.41843063 30.69188324 87.41449799 31.65690613 87.41044617 C35.92544269 87.50566923 38.34004205 87.76028832 42.01977539 90.05517578 C44.72251488 94.40054039 44.66053577 97.99499341 44.63891602 103.02392578 C44.65403732 103.97128098 44.66915863 104.91863617 44.68473816 105.8946991 C44.72761223 108.91067309 44.73645296 111.92564616 44.74438477 114.94189453 C44.76752927 116.99074926 44.7928945 119.03958019 44.82055664 121.08837891 C44.88340636 126.10213926 44.91574388 131.11527503 44.93188477 136.12939453 C50.87188477 136.12939453 56.81188477 136.12939453 62.93188477 136.12939453 C62.94123047 134.81745117 62.95057617 133.50550781 62.96020508 132.15380859 C63.00008137 127.28562482 63.0658339 122.41807458 63.1394043 117.55029297 C63.16762756 115.44360493 63.18883532 113.33681073 63.20288086 111.22998047 C63.22429137 108.20110673 63.27093237 105.17351122 63.32250977 102.14501953 C63.3237384 101.20321838 63.32496704 100.26141724 63.32623291 99.29107666 C63.41027569 95.53782397 63.53016867 92.87279374 65.33032227 89.54150391 C69.47229406 87.29327147 73.52458611 87.52593743 78.16625977 87.52001953 C79.65600311 87.49521515 79.65600311 87.49521515 81.17584229 87.46990967 C84.34458563 87.42136685 87.51284883 87.40004441 90.68188477 87.37939453 C92.83164859 87.35124017 94.98138998 87.32131349 97.13110352 87.28955078 C102.39799109 87.2156059 107.66461113 87.16606943 112.93188477 87.12939453 C112.93188477 80.85939453 112.93188477 74.58939453 112.93188477 68.12939453 C109.88583008 68.09201172 106.83977539 68.05462891 103.70141602 68.01611328 C100.74585863 67.96987993 97.79042698 67.9186528 94.83496094 67.86694336 C92.7836066 67.8337237 90.73216151 67.80568256 88.68066406 67.78295898 C85.72885528 67.74935884 82.77787591 67.69703977 79.82641602 67.64111328 C78.91164993 67.63472336 77.99688385 67.62833344 77.05439758 67.62174988 C72.23304836 67.51084584 68.81866827 67.31428243 64.93188477 64.12939453 C63.77896792 61.82356084 63.77791139 60.43072566 63.7265625 57.86328125 C63.69664467 56.54213821 63.69664467 56.54213821 63.66612244 55.19430542 C63.64940994 54.2421817 63.63269745 53.29005798 63.61547852 52.30908203 C63.59469742 51.33528595 63.57391632 50.36148987 63.55250549 49.35818481 C63.48699879 46.24032807 63.42811979 43.1223855 63.36938477 40.00439453 C63.32620061 37.89370849 63.28258636 35.7830312 63.23852539 33.67236328 C63.13131624 28.49146217 63.03005193 23.31047454 62.93188477 18.12939453 C56.99188477 18.12939453 51.05188477 18.12939453 44.93188477 18.12939453 Z " fill="#E7842A" transform="translate(37.068115234375,147.87060546875)"/>
<path d="M0 0 C0.86367187 -0.03738281 1.72734375 -0.07476562 2.6171875 -0.11328125 C6.00944767 0.46266323 6.97778297 1.65258013 9.125 4.3125 C10.43074651 6.36135427 11.67951575 8.44741249 12.875 10.5625 C13.79539063 12.17898437 13.79539063 12.17898437 14.734375 13.828125 C15.19328125 14.64796875 15.6521875 15.4678125 16.125 16.3125 C19.98701234 12.94501363 21.98163284 8.36418467 24.40625 3.9296875 C26.125 1.3125 26.125 1.3125 29.125 0.3125 C33.76214595 0.05488078 36.8953305 0.47382924 41.125 2.3125 C41.15027124 8.56045675 41.16783344 14.80840041 41.17993164 21.05639648 C41.18497298 23.18368014 41.19180591 25.31096031 41.20043945 27.43823242 C41.21251379 30.48877826 41.21823014 33.53927845 41.22265625 36.58984375 C41.22781754 37.54712875 41.23297882 38.50441376 41.23829651 39.4907074 C41.23837204 40.37154495 41.23844757 41.25238251 41.23852539 42.15991211 C41.240746 42.93934677 41.24296661 43.71878143 41.24525452 44.52183533 C41.125 46.3125 41.125 46.3125 40.125 47.3125 C37.96019203 47.4114294 35.79206215 47.442211 33.625 47.4375 C32.4390625 47.44007813 31.253125 47.44265625 30.03125 47.4453125 C27.125 47.3125 27.125 47.3125 26.125 46.3125 C25.88972227 43.96262738 25.71113583 41.60693961 25.5625 39.25 C25.47871094 37.95964844 25.39492187 36.66929687 25.30859375 35.33984375 C25.24800781 34.34082031 25.18742187 33.34179688 25.125 32.3125 C24.83367187 32.89 24.54234375 33.4675 24.2421875 34.0625 C22.99841643 36.31536836 21.77049355 38.33189288 20.125 40.3125 C17.0625 41.125 17.0625 41.125 14.125 40.3125 C11.31081454 37.49831454 9.91663668 34.89577337 8.125 31.3125 C7.795 36.5925 7.465 41.8725 7.125 47.3125 C2.505 47.3125 -2.115 47.3125 -6.875 47.3125 C-6.875 32.1325 -6.875 16.9525 -6.875 1.3125 C-4.44538821 0.0976941 -2.71115884 0.07642733 0 0 Z " fill="#E78327" transform="translate(215.875,199.6875)"/>
<path d="M0 0 C5.82401855 3.48706993 11.27836125 8.91610871 13.1328125 15.58984375 C13.56348819 18.78325817 13.40019616 21.66561773 13.125 24.875 C12.98964844 26.54755859 12.98964844 26.54755859 12.8515625 28.25390625 C12.5 31.3125 12.5 31.3125 11.8359375 33.58984375 C11.72507812 34.15832031 11.61421875 34.72679687 11.5 35.3125 C12.16 35.9725 12.82 36.6325 13.5 37.3125 C13.5 40.36943841 13.21221363 42.44907794 11.23046875 44.8515625 C7.38317618 48.33847577 7.38317618 48.33847577 4.375 48.25 C3.04976417 47.58738209 1.73824161 46.89699542 0.4375 46.1875 C-1.64419719 44.98352899 -1.64419719 44.98352899 -4.5 46.3125 C-12.16651747 46.95225043 -19.25733048 47.2617623 -25.5 42.3125 C-31.93143445 36.27084946 -35.44933599 31.30614456 -35.8125 22.375 C-35.60767645 14.76239138 -32.53608502 9.57644757 -27.43359375 4.11328125 C-20.05334885 -2.76003774 -9.26624956 -4.29968019 0 0 Z M-20.875 18.1875 C-21.77965711 21.26333417 -21.37752703 23.24115538 -20.5 26.3125 C-18.63992604 29.19882166 -17.51262547 30.94682969 -14.25 32.125 C-13.38375 32.2178125 -13.38375 32.2178125 -12.5 32.3125 C-12.62375 31.590625 -12.7475 30.86875 -12.875 30.125 C-12.5 27.3125 -12.5 27.3125 -9.875 24.4375 C-6.5 22.3125 -6.5 22.3125 -3.125 22.5 C-2.25875 22.768125 -1.3925 23.03625 -0.5 23.3125 C-0.76298363 19.5430679 -1.33809846 17.53818093 -3.5625 14.4375 C-6.89092612 12.02970238 -8.56766719 11.62239312 -12.5703125 11.88671875 C-16.45167046 12.74313174 -18.60075647 15.08625882 -20.875 18.1875 Z " fill="#E78329" transform="translate(517.5,201.6875)"/>
<path d="M0 0 C0.86625 -0.01675781 1.7325 -0.03351563 2.625 -0.05078125 C5.5918453 0.40302897 6.18932348 0.94056256 8 3.3125 C9.44123888 5.52533904 10.83151971 7.73676345 12.1875 10 C12.55552734 10.60650391 12.92355469 11.21300781 13.30273438 11.83789062 C14.20564926 13.32711388 15.10334696 14.81949815 16 16.3125 C16.33 11.6925 16.66 7.0725 17 2.3125 C22.23933265 0.49477234 25.41246808 0.35329584 31 1.3125 C32.40027356 32.42651495 32.40027356 32.42651495 31 47.3125 C26.8227253 47.99156436 23.1491322 48.25241606 19 47.3125 C15.79352535 44.0720944 14.0274654 40.35687108 12 36.3125 C10.71631831 34.27378009 9.36662301 32.29763774 8 30.3125 C7.97421875 31.44429687 7.9484375 32.57609375 7.921875 33.7421875 C7.86560374 35.22399743 7.80825618 36.70576677 7.75 38.1875 C7.72873047 39.30705078 7.72873047 39.30705078 7.70703125 40.44921875 C7.609375 42.6171875 7.609375 42.6171875 7 46.3125 C4.74716598 48.30991066 3.43724256 48.31048506 0.45703125 48.32421875 C-0.41566406 48.21722656 -1.28835938 48.11023438 -2.1875 48 C-3.06792969 47.90074219 -3.94835937 47.80148438 -4.85546875 47.69921875 C-7 47.3125 -7 47.3125 -8 46.3125 C-8.10829396 44.94210602 -8.14899701 43.56626305 -8.16113281 42.19165039 C-8.17074036 41.31726822 -8.1803479 40.44288605 -8.19024658 39.54200745 C-8.19449646 38.59099655 -8.19874634 37.63998566 -8.203125 36.66015625 C-8.20882507 35.68968857 -8.21452515 34.71922089 -8.22039795 33.71934509 C-8.22986293 31.66227311 -8.23638785 29.60518586 -8.24023438 27.5480957 C-8.24994823 24.3918227 -8.28096097 21.23619833 -8.3125 18.08007812 C-8.3190288 16.08594139 -8.32427975 14.09179997 -8.328125 12.09765625 C-8.3404718 11.14866959 -8.3528186 10.19968292 -8.36553955 9.22193909 C-8.36253845 8.34440475 -8.35953735 7.46687042 -8.35644531 6.56274414 C-8.36009094 5.7885463 -8.36373657 5.01434845 -8.36749268 4.21669006 C-8.24622009 3.58830734 -8.12494751 2.95992462 -8 2.3125 C-4.78169935 0.16696623 -3.73213493 0.01666132 0 0 Z " fill="#E88328" transform="translate(337,199.6875)"/>
<path d="M0 0 C1.299375 -0.02126953 1.299375 -0.02126953 2.625 -0.04296875 C5 0.1875 5 0.1875 8 2.1875 C9.0715332 4.36376953 9.0715332 4.36376953 10.05078125 7.0703125 C10.41695557 8.06571045 10.78312988 9.0611084 11.16040039 10.08666992 C11.54059326 11.15119385 11.92078613 12.21571777 12.3125 13.3125 C13.10907652 15.49880669 13.9059524 17.68500433 14.703125 19.87109375 C15.09177734 20.94601074 15.48042969 22.02092773 15.88085938 23.12841797 C16.86500647 25.81850591 17.87967682 28.49215103 18.921875 31.16015625 C19.20248779 31.88251465 19.48310059 32.60487305 19.7722168 33.34912109 C20.51306098 35.24826383 21.2583264 37.14568018 22.00390625 39.04296875 C22.93654865 41.98719281 23.22448899 44.13099606 23 47.1875 C20.70858714 47.24134521 18.41681812 47.28022087 16.125 47.3125 C14.84882813 47.33570313 13.57265625 47.35890625 12.2578125 47.3828125 C9 47.1875 9 47.1875 7 45.1875 C6.505 42.7125 6.505 42.7125 6 40.1875 C2.04 40.1875 -1.92 40.1875 -6 40.1875 C-6.99 42.4975 -7.98 44.8075 -9 47.1875 C-15.435 47.6825 -15.435 47.6825 -22 48.1875 C-24 44.1875 -24 44.1875 -23.61962891 42.26245117 C-23.32491699 41.59189697 -23.03020508 40.92134277 -22.7265625 40.23046875 C-22.40002686 39.45807861 -22.07349121 38.68568848 -21.73706055 37.88989258 C-21.37008057 37.05997803 -21.00310059 36.23006348 -20.625 35.375 C-16.86863774 26.5280936 -13.64580289 17.59017622 -10.70361328 8.44018555 C-10.39278809 7.50730713 -10.08196289 6.57442871 -9.76171875 5.61328125 C-9.49319092 4.78223877 -9.22466309 3.95119629 -8.94799805 3.0949707 C-8.63515869 2.46550537 -8.32231934 1.83604004 -8 1.1875 C-5.07345473 0.21198491 -3.05345004 0.02271912 0 0 Z M-1 24.1875 C-1.33 25.1775 -1.66 26.1675 -2 27.1875 C-1.01 27.1875 -0.02 27.1875 1 27.1875 C1 26.1975 1 25.2075 1 24.1875 C0.34 24.1875 -0.32 24.1875 -1 24.1875 Z " fill="#E7852B" transform="translate(447,199.8125)"/>
<path d="M0 0 C1.14662109 0.00966797 1.14662109 0.00966797 2.31640625 0.01953125 C4.4375 0.1875 4.4375 0.1875 7.4375 1.1875 C8.61961037 4.06008944 9.61926182 6.86070954 10.5625 9.8125 C13.59297521 18.94331511 17.00715814 27.86656731 20.68017578 36.75830078 C21.05384277 37.68497559 21.42750977 38.61165039 21.8125 39.56640625 C22.15023437 40.3869751 22.48796875 41.20754395 22.8359375 42.05297852 C23.4375 44.1875 23.4375 44.1875 22.4375 47.1875 C19.30387016 48.47906365 16.49908531 48.14216142 13.1875 47.75 C12.29546875 47.64816406 11.4034375 47.54632813 10.484375 47.44140625 C9.80890625 47.35761719 9.1334375 47.27382812 8.4375 47.1875 C7.4475 44.8775 6.4575 42.5675 5.4375 40.1875 C1.4775 39.8575 -2.4825 39.5275 -6.5625 39.1875 C-7.2225 41.8275 -7.8825 44.4675 -8.5625 47.1875 C-13.5125 47.1875 -18.4625 47.1875 -23.5625 47.1875 C-22.4387745 39.32142147 -22.4387745 39.32142147 -21.1796875 36.26953125 C-20.90294189 35.58181641 -20.62619629 34.89410156 -20.34106445 34.18554688 C-20.04288818 33.46431641 -19.74471191 32.74308594 -19.4375 32 C-17.38105214 26.91917496 -15.4113679 21.84001547 -13.68359375 16.63671875 C-13.38018066 15.72752686 -13.07676758 14.81833496 -12.76416016 13.8815918 C-12.18020142 12.11223853 -11.60786597 10.33899837 -11.04833984 8.56176758 C-10.78102051 7.75763428 -10.51370117 6.95350098 -10.23828125 6.125 C-10.01052002 5.41214844 -9.78275879 4.69929687 -9.5480957 3.96484375 C-7.47580292 0.22783818 -3.95565679 -0.07362475 0 0 Z M-0.5625 23.1875 C-0.8925 24.5075 -1.2225 25.8275 -1.5625 27.1875 C-0.9025 27.1875 -0.2425 27.1875 0.4375 27.1875 C0.1075 25.8675 -0.2225 24.5475 -0.5625 23.1875 Z " fill="#E88225" transform="translate(293.5625,199.8125)"/>
<path d="M0 0 C1.17884766 -0.01224609 2.35769531 -0.02449219 3.57226562 -0.03710938 C4.69955078 -0.03904297 5.82683594 -0.04097656 6.98828125 -0.04296875 C8.01091064 -0.04707764 9.03354004 -0.05118652 10.0871582 -0.05541992 C12.6875 0.1875 12.6875 0.1875 15.6875 2.1875 C16.05078125 4.5 16.05078125 4.5 16 7.1875 C15.99613281 8.074375 15.99226563 8.96125 15.98828125 9.875 C15.6875 12.1875 15.6875 12.1875 13.6875 14.1875 C11.5234375 14.3828125 11.5234375 14.3828125 9.0625 14.3125 C8.24523437 14.29445312 7.42796875 14.27640625 6.5859375 14.2578125 C5.95945312 14.23460937 5.33296875 14.21140625 4.6875 14.1875 C4.69535522 15.63370728 4.69535522 15.63370728 4.70336914 17.10913086 C4.72142118 20.67422564 4.73293274 24.23931636 4.74243164 27.80444336 C4.7474714 29.34969766 4.7543032 30.89494716 4.76293945 32.44018555 C4.77502076 34.65675029 4.78073173 36.87325218 4.78515625 39.08984375 C4.79031754 39.7846434 4.79547882 40.47944305 4.80079651 41.19529724 C4.80099277 42.8597933 4.74939129 44.52415499 4.6875 46.1875 C3.05797268 47.81702732 1.11586277 47.62236979 -1.125 47.875 C-1.99769531 47.98199219 -2.87039063 48.08898437 -3.76953125 48.19921875 C-6.3125 48.1875 -6.3125 48.1875 -10.3125 46.1875 C-10.3125 35.9575 -10.3125 25.7275 -10.3125 15.1875 C-13.6125 14.8575 -16.9125 14.5275 -20.3125 14.1875 C-21.3125 13.1875 -21.3125 13.1875 -21.41015625 10.46484375 C-21.39855469 9.36269531 -21.38695312 8.26054687 -21.375 7.125 C-21.36597656 6.02027344 -21.35695313 4.91554687 -21.34765625 3.77734375 C-21.33605469 2.92269531 -21.32445312 2.06804687 -21.3125 1.1875 C-14.1999556 0.09123853 -7.18827324 0.0039957 0 0 Z " fill="#E78F3D" transform="translate(403.3125,199.8125)"/>
<path d="M0 0 C0 0.33 0 0.66 0 1 C-0.79664063 1.02578125 -1.59328125 1.0515625 -2.4140625 1.078125 C-11.0404966 1.38218965 -11.0404966 1.38218965 -18 6 C-19.04335882 8.96641232 -19.61383077 11.8840138 -20 15 C-17.36 15 -14.72 15 -12 15 C-12.680625 16.03125 -13.36125 17.0625 -14.0625 18.125 C-15.58287805 20.81824112 -15.99870688 21.93534392 -16.0625 25.125 C-14.74497852 28.69005813 -12.83911269 30.52487612 -10 33 C-9.90847656 32.39671875 -9.81695312 31.7934375 -9.72265625 31.171875 C-8.82279508 28.46742737 -7.79297981 27.7917686 -5.4375 26.25 C-4.79683594 25.82203125 -4.15617187 25.3940625 -3.49609375 24.953125 C-3.00238281 24.63859375 -2.50867188 24.3240625 -2 24 C-2.268125 24.515625 -2.53625 25.03125 -2.8125 25.5625 C-4.32349407 28.66401415 -5.65572726 31.82262806 -7 35 C-7.61488281 35.03738281 -8.22976563 35.07476562 -8.86328125 35.11328125 C-10.07564453 35.21189453 -10.07564453 35.21189453 -11.3125 35.3125 C-12.11300781 35.37050781 -12.91351563 35.42851562 -13.73828125 35.48828125 C-16.4013248 36.0908006 -17.39869414 36.80873935 -19 39 C-18.76956136 41.65466049 -18.76956136 41.65466049 -18 44 C-12.67067568 45.70084819 -7.56890517 46.52013969 -2 47 C-2 46.34 -2 45.68 -2 45 C0.97 45 3.94 45 7 45 C3.41181941 48.58818059 -1.43891239 48.20160399 -6.3125 48.3125 C-13.62755401 48.21364792 -17.86348111 46.94642684 -23.19140625 41.94140625 C-29.29064312 35.47119612 -31.48128844 30.33580361 -31.2421875 21.44921875 C-30.52069638 14.15284885 -26.19392372 8.83716936 -21 4 C-14.65664142 -0.97709674 -7.74368157 -0.42495813 0 0 Z " fill="#E7862E" transform="translate(513,200)"/>
<path d="M0 0 C10.89 0 21.78 0 33 0 C33 15.84 33 31.68 33 48 C49.78719904 47.88022553 49.78719904 47.88022553 66.57421875 47.7421875 C73.41940422 47.68184365 80.26456116 47.62365375 87.10986328 47.578125 C92.62773816 47.54129165 98.14545792 47.49493682 103.66320038 47.44193649 C105.76992832 47.42338221 107.87668952 47.40827809 109.9834671 47.39665604 C112.93087195 47.37981145 115.87792074 47.35078043 118.82519531 47.31884766 C119.69913437 47.31668747 120.57307343 47.31452728 121.47349548 47.31230164 C122.68076042 47.29555641 122.68076042 47.29555641 123.91241455 47.2784729 C124.60929005 47.27294214 125.30616554 47.26741138 126.02415848 47.26171303 C128.44178861 47.05068443 128.44178861 47.05068443 132 45 C132.33 32.79 132.66 20.58 133 8 C127.06 8.495 127.06 8.495 121 9 C121.99 9.99 121.99 9.99 123 11 C122.52433594 11.96486328 122.52433594 11.96486328 122.0390625 12.94921875 C120.68520017 16.92428069 120.5433699 20.6427517 120.375 24.8125 C120.189375 28.8653125 120.189375 28.8653125 120 33 C108.78 33 97.56 33 86 33 C86 32.67 86 32.34 86 32 C90.02037968 31.80179011 94.04130512 31.6183533 98.0625 31.4375 C99.19623047 31.38142578 100.32996094 31.32535156 101.49804688 31.26757812 C103.15610352 31.19506836 103.15610352 31.19506836 104.84765625 31.12109375 C105.85836182 31.0739624 106.86906738 31.02683105 107.91040039 30.97827148 C111 31 111 31 118 32 C118 23.09 118 14.18 118 5 C121.63216247 3.78927918 124.31104229 4.05014357 128.125 4.3125 C129.38570312 4.39113281 130.64640625 4.46976562 131.9453125 4.55078125 C132.95335937 4.69902344 133.96140625 4.84726562 135 5 C136.53157668 8.06315336 136.1837217 11.27833601 136.203125 14.640625 C136.20882507 15.40042664 136.21452515 16.16022827 136.22039795 16.9430542 C136.22985192 18.55365607 136.23638351 20.16427733 136.24023438 21.77490234 C136.24990762 24.22658632 136.2809125 26.67742027 136.3125 29.12890625 C136.31903352 30.69530753 136.32428262 32.2617148 136.328125 33.828125 C136.3404718 34.55646545 136.3528186 35.28480591 136.36553955 36.03521729 C136.34441428 40.91912528 135.59389204 45.40610796 132 49 C130.62499826 49.15720305 129.24235934 49.24839385 127.85986328 49.31201172 C126.97080292 49.35335236 126.08174255 49.39469299 125.16574097 49.43728638 C124.18549957 49.47602875 123.20525818 49.51477112 122.1953125 49.5546875 C121.17180695 49.59673309 120.14830139 49.63877869 119.09378052 49.68209839 C107.56158013 50.11375028 96.03164835 50.15068894 84.49267578 50.13037109 C80.87137693 50.12499462 77.25020147 50.13036474 73.62890625 50.13671875 C59.7228514 50.14026386 45.88210544 49.82343525 32 49 C31.19738724 38.36411897 30.89139899 27.79254499 30.875 17.125 C30.87048828 15.88266602 30.86597656 14.64033203 30.86132812 13.36035156 C30.86326172 12.19213867 30.86519531 11.02392578 30.8671875 9.8203125 C30.86831543 8.77117676 30.86944336 7.72204102 30.87060547 6.64111328 C31 4 31 4 32 1 C21.44 1 10.88 1 0 1 C0 0.67 0 0.34 0 0 Z " fill="#E39C5C" transform="translate(32,252)"/>
<path d="M0 0 C1.14662109 0.00966797 1.14662109 0.00966797 2.31640625 0.01953125 C4.4375 0.1875 4.4375 0.1875 7.4375 1.1875 C7.7675 2.8375 8.0975 4.4875 8.4375 6.1875 C7.7775 6.1875 7.1175 6.1875 6.4375 6.1875 C6.1075 5.1975 5.7775 4.2075 5.4375 3.1875 C1.4775 2.8575 -2.4825 2.5275 -6.5625 2.1875 C-6.995625 3.79625 -7.42875 5.405 -7.875 7.0625 C-9.93200873 14.5855507 -12.02888764 22.0315426 -14.87890625 29.296875 C-15.57483386 31.22161194 -16.07399386 33.13867753 -16.5625 35.125 C-16.8925 36.135625 -17.2225 37.14625 -17.5625 38.1875 C-19.0475 38.6825 -19.0475 38.6825 -20.5625 39.1875 C-20.5625 41.1675 -20.5625 43.1475 -20.5625 45.1875 C-16.9325 45.5175 -13.3025 45.8475 -9.5625 46.1875 C-9.8925 43.5475 -10.2225 40.9075 -10.5625 38.1875 C-4.2925 37.8575 1.9775 37.5275 8.4375 37.1875 C7.9425 34.7125 7.9425 34.7125 7.4375 32.1875 C12.3125 31.1875 12.3125 31.1875 13.4375 31.1875 C13.28079834 30.60258789 13.12409668 30.01767578 12.96264648 29.41503906 C12.25685555 26.75837768 11.56580221 24.09809632 10.875 21.4375 C10.5047168 20.05691406 10.5047168 20.05691406 10.12695312 18.6484375 C9.89814453 17.75898438 9.66933594 16.86953125 9.43359375 15.953125 C9.21888428 15.13618164 9.0041748 14.31923828 8.78295898 13.47753906 C8.41616124 11.04604591 8.67255947 9.50324702 9.4375 7.1875 C11.38091628 12.27690491 13.32068469 17.36765047 15.25390625 22.4609375 C16.59668796 25.99482231 17.95603483 29.52105386 19.33984375 33.0390625 C19.6219873 33.76544922 19.90413086 34.49183594 20.19482422 35.24023438 C20.72160399 36.59599748 21.2555143 37.94901695 21.79736328 39.29882812 C23.55032632 43.84902105 23.55032632 43.84902105 22.4375 47.1875 C19.30387016 48.47906365 16.49908531 48.14216142 13.1875 47.75 C12.29546875 47.64816406 11.4034375 47.54632813 10.484375 47.44140625 C9.80890625 47.35761719 9.1334375 47.27382812 8.4375 47.1875 C7.4475 44.8775 6.4575 42.5675 5.4375 40.1875 C1.4775 39.8575 -2.4825 39.5275 -6.5625 39.1875 C-7.2225 41.8275 -7.8825 44.4675 -8.5625 47.1875 C-13.5125 47.1875 -18.4625 47.1875 -23.5625 47.1875 C-22.4387745 39.32142147 -22.4387745 39.32142147 -21.1796875 36.26953125 C-20.90294189 35.58181641 -20.62619629 34.89410156 -20.34106445 34.18554688 C-20.04288818 33.46431641 -19.74471191 32.74308594 -19.4375 32 C-17.38105214 26.91917496 -15.4113679 21.84001547 -13.68359375 16.63671875 C-13.38018066 15.72752686 -13.07676758 14.81833496 -12.76416016 13.8815918 C-12.18020142 12.11223853 -11.60786597 10.33899837 -11.04833984 8.56176758 C-10.78102051 7.75763428 -10.51370117 6.95350098 -10.23828125 6.125 C-10.01052002 5.41214844 -9.78275879 4.69929687 -9.5480957 3.96484375 C-7.47580292 0.22783818 -3.95565679 -0.07362475 0 0 Z " fill="#E6842B" transform="translate(293.5625,199.8125)"/>
<path d="M0 0 C0.99 0.33 1.98 0.66 3 1 C5.36652633 6.01156898 5.27855987 10.86047379 5.24291992 16.27832031 C5.24481827 17.19281952 5.24671661 18.10731873 5.24867249 19.04953003 C5.25236434 22.05915008 5.2417012 25.06852656 5.23046875 28.078125 C5.22927625 30.17226127 5.22882394 32.26639808 5.2290802 34.36053467 C5.22751824 38.74169275 5.21924835 43.12276879 5.20581055 47.50390625 C5.18877916 53.12875183 5.18499756 58.75350766 5.18575573 64.37837601 C5.18548435 68.69851544 5.18000893 73.01863513 5.17275429 77.33876801 C5.16956596 79.41368205 5.16759983 81.48859834 5.16686058 83.56351471 C5.16470114 86.45546822 5.15596669 89.34732497 5.14526367 92.23925781 C5.14571686 93.10161041 5.14617004 93.96396301 5.14663696 94.85244751 C5.11448103 100.77103795 5.11448103 100.77103795 4 103 C-12.17 103 -28.34 103 -45 103 C-44.67 104.65 -44.34 106.3 -44 108 C-44.0826428 110.27401002 -44.23148489 112.54633382 -44.4375 114.8125 C-44.53933594 115.97394531 -44.64117187 117.13539063 -44.74609375 118.33203125 C-44.82988281 119.21246094 -44.91367188 120.09289062 -45 121 C-45.33 121 -45.66 121 -46 121 C-46.02888514 117.85418577 -46.04675923 114.70840531 -46.0625 111.5625 C-46.07087891 110.66466797 -46.07925781 109.76683594 -46.08789062 108.84179688 C-46.09111328 107.98779297 -46.09433594 107.13378906 -46.09765625 106.25390625 C-46.10551147 105.06776733 -46.10551147 105.06776733 -46.11352539 103.85766602 C-46 102 -46 102 -45 101 C-43.49581261 100.90688111 -41.98728644 100.88253972 -40.48022461 100.88647461 C-39.03884377 100.88658791 -39.03884377 100.88658791 -37.56834412 100.88670349 C-36.00117393 100.89444542 -36.00117393 100.89444542 -34.40234375 100.90234375 C-33.33834854 100.9037587 -32.27435333 100.90517365 -31.17811584 100.90663147 C-27.76454917 100.91224936 -24.351047 100.92480489 -20.9375 100.9375 C-18.62955824 100.94251269 -16.32161545 100.947076 -14.01367188 100.95117188 C-8.34242574 100.9622246 -2.67121747 100.97898013 3 101 C2.91559596 88.71705731 2.82071207 76.43424448 2.71247292 64.15148735 C2.66254115 58.44802149 2.61621067 52.74457387 2.578125 47.04101562 C2.54123303 41.53609999 2.49486213 36.03133812 2.44193649 30.52655411 C2.4234134 28.4270612 2.40829775 26.32753535 2.39665604 24.22799301 C2.37975811 21.28578721 2.35071407 18.34393198 2.31884766 15.40185547 C2.31668747 14.53510696 2.31452728 13.66835846 2.31230164 12.77534485 C2.24807265 8.12886884 1.77621732 4.3720443 0 0 Z " fill="#EEA873" transform="translate(163,150)"/>
<path d="M0 0 C0.99 0.33 1.98 0.66 3 1 C3 12.88 3 24.76 3 37 C0.03 37 -2.94 37 -6 37 C-6 27.43 -6 17.86 -6 8 C-5.34 8 -4.68 8 -4 8 C-4 6.68 -4 5.36 -4 4 C-2.35 4 -0.7 4 1 4 C0.67 2.68 0.34 1.36 0 0 Z " fill="#E98225" transform="translate(402,208)"/>
<path d="M0 0 C0.99 0.66 1.98 1.32 3 2 C3 2.66 3 3.32 3 4 C3.639375 4.165 4.27875 4.33 4.9375 4.5 C7 6 7 6 7.48828125 7.9140625 C7.7275978 9.93575155 7.86893028 11.96841939 8 14 C7.01 14.495 7.01 14.495 6 15 C4.86649466 17.01669827 4.86649466 17.01669827 4 19 C3.45627049 15.94152152 3 13.11227195 3 10 C2.34 9.67 1.68 9.34 1 9 C0.67 9.99 0.34 10.98 0 12 C-2.16874252 11.49396008 -3.99967627 11.00016187 -6 10 C-7.66619446 9.9603287 -9.33391013 9.95615553 -11 10 C-11 10.66 -11 11.32 -11 12 C-11.66 12 -12.32 12 -13 12 C-13 12.66 -13 13.32 -13 14 C-16.28696233 14.79953138 -17.71023192 15.09658936 -21 14 C-20.814375 12.88625 -20.62875 11.7725 -20.4375 10.625 C-19.68319343 7.17431139 -19.68319343 7.17431139 -21 5 C-14.56179557 -0.44621523 -8.2524461 -1.07247932 0 0 Z " fill="#E78225" transform="translate(514,201)"/>
<path d="M0 0 C1.31677734 0.00966797 1.31677734 0.00966797 2.66015625 0.01953125 C4.9375 0.1875 4.9375 0.1875 6.9375 1.1875 C6.9375 1.8475 6.9375 2.5075 6.9375 3.1875 C2.6475 2.8575 -1.6425 2.5275 -6.0625 2.1875 C-6.0625 16.3775 -6.0625 30.5675 -6.0625 45.1875 C-2.7625 45.1875 0.5375 45.1875 3.9375 45.1875 C3.89109375 43.77855469 3.8446875 42.36960938 3.796875 40.91796875 C3.75935957 39.07033366 3.72295916 37.2226757 3.6875 35.375 C3.65398437 34.44623047 3.62046875 33.51746094 3.5859375 32.56054688 C3.57304687 31.66787109 3.56015625 30.77519531 3.546875 29.85546875 C3.52592773 29.03328857 3.50498047 28.2111084 3.48339844 27.36401367 C3.9375 25.1875 3.9375 25.1875 5.96191406 23.39575195 C6.9398291 22.79766724 6.9398291 22.79766724 7.9375 22.1875 C8.5975 23.8375 9.2575 25.4875 9.9375 27.1875 C11.2575 26.8575 12.5775 26.5275 13.9375 26.1875 C13.33566251 28.20795442 12.66443904 30.20861039 11.9375 32.1875 C10.9475 32.6825 10.9475 32.6825 9.9375 33.1875 C9.2775 32.1975 8.6175 31.2075 7.9375 30.1875 C7.91171875 31.31929687 7.8859375 32.45109375 7.859375 33.6171875 C7.80310374 35.09899743 7.74575618 36.58076677 7.6875 38.0625 C7.66623047 39.18205078 7.66623047 39.18205078 7.64453125 40.32421875 C7.546875 42.4921875 7.546875 42.4921875 6.9375 46.1875 C4.68466598 48.18491066 3.37474256 48.18548506 0.39453125 48.19921875 C-0.47816406 48.09222656 -1.35085938 47.98523438 -2.25 47.875 C-3.13042969 47.77574219 -4.01085937 47.67648438 -4.91796875 47.57421875 C-7.0625 47.1875 -7.0625 47.1875 -8.0625 46.1875 C-8.17079396 44.81710602 -8.21149701 43.44126305 -8.22363281 42.06665039 C-8.23324036 41.19226822 -8.2428479 40.31788605 -8.25274658 39.41700745 C-8.25699646 38.46599655 -8.26124634 37.51498566 -8.265625 36.53515625 C-8.27132507 35.56468857 -8.27702515 34.59422089 -8.28289795 33.59434509 C-8.29236293 31.53727311 -8.29888785 29.48018586 -8.30273438 27.4230957 C-8.31244823 24.2668227 -8.34346097 21.11119833 -8.375 17.95507812 C-8.3815288 15.96094139 -8.38677975 13.96679997 -8.390625 11.97265625 C-8.4029718 11.02366959 -8.4153186 10.07468292 -8.42803955 9.09693909 C-8.42503845 8.21940475 -8.42203735 7.34187042 -8.41894531 6.43774414 C-8.42259094 5.6635463 -8.42623657 4.88934845 -8.42999268 4.09169006 C-8.30872009 3.46330734 -8.18744751 2.83492462 -8.0625 2.1875 C-4.79122414 0.00664943 -3.78873277 -0.06137859 0 0 Z " fill="#E7B872" transform="translate(337.0625,199.8125)"/>
<path d="M0 0 C14.52 0 29.04 0 44 0 C44.495 10.395 44.495 10.395 45 21 C44 22 44 22 40.11035156 22.05004883 C38.37038219 22.02264866 36.63047169 21.9913485 34.890625 21.95703125 C33.00261478 21.93463376 31.11459318 21.91317937 29.2265625 21.89257812 C26.2395987 21.85552328 23.25321004 21.81256383 20.26660156 21.75317383 C17.39119159 21.69861061 14.51642399 21.66956071 11.640625 21.64453125 C10.75086975 21.62074905 9.8611145 21.59696686 8.94439697 21.57246399 C4.79965112 21.55499023 2.57937741 21.65033559 -1.04003906 23.8347168 C-3.19976211 25.92895605 -3.19976211 25.92895605 -4 29 C-4.66 29 -5.32 29 -6 29 C-6 42.2 -6 55.4 -6 69 C-6.33 69 -6.66 69 -7 69 C-7.12372902 62.82535087 -7.21440144 56.65142544 -7.2746582 50.47583008 C-7.29978051 48.3757673 -7.33388458 46.27579177 -7.37719727 44.17602539 C-7.43794871 41.1548916 -7.46623263 38.13491504 -7.48828125 35.11328125 C-7.51408768 34.17664139 -7.5398941 33.24000153 -7.56648254 32.27497864 C-7.56831634 27.99932789 -7.37121704 25.61087323 -5.11523438 21.8984375 C-0.61435436 19.15558146 3.15888253 19.3724401 8.33203125 19.51171875 C9.32377853 19.51879349 10.31552582 19.52586823 11.33732605 19.53315735 C14.49649342 19.56108567 17.65387082 19.6238228 20.8125 19.6875 C22.95765665 19.71258482 25.10284115 19.73539766 27.24804688 19.75585938 C32.49938475 19.81090756 37.74938918 19.89717092 43 20 C43 13.73 43 7.46 43 1 C28.81 1 14.62 1 0 1 C0 0.67 0 0.34 0 0 Z " fill="#E1A771" transform="translate(107,215)"/>
<path d="M0 0 C0.33 0 0.66 0 1 0 C1 14.85 1 29.7 1 45 C4.3 45 7.6 45 11 45 C10.85856168 42.2705414 10.71200471 39.54151877 10.5625 36.8125 C10.52318359 36.04357422 10.48386719 35.27464844 10.44335938 34.48242188 C10.22492966 30.56748925 9.91307892 26.82879312 9 23 C10.98 22.67 12.96 22.34 15 22 C15 22.99 15 23.98 15 25 C15.66 25 16.32 25 17 25 C17 24.34 17 23.68 17 23 C17.66 23 18.32 23 19 23 C18.67 26.3 18.34 29.6 18 33 C19.485 32.505 19.485 32.505 21 32 C22.32 33.65 23.64 35.3 25 37 C25 36.34 25 35.68 25 35 C25.99 35 26.98 35 28 35 C28.144375 34.38125 28.28875 33.7625 28.4375 33.125 C29 31 29 31 30 29 C30.66 29 31.32 29 32 29 C29.4 36 29.4 36 27 39 C24.0625 39.625 24.0625 39.625 21 39 C18.18581454 36.18581454 16.79163668 33.58327337 15 30 C14.67 35.28 14.34 40.56 14 46 C9.38 46 4.76 46 0 46 C0 30.82 0 15.64 0 0 Z " fill="#E68932" transform="translate(209,201)"/>
<path d="M0 0 C0.85641586 -0.00175232 1.71283173 -0.00350464 2.59519958 -0.00531006 C5.39364719 -0.00967106 8.1920304 -0.00681288 10.99047852 -0.00341797 C12.94580599 -0.00409223 14.90113338 -0.00506327 16.85646057 -0.00631714 C20.93719284 -0.00778593 25.01790311 -0.00566431 29.09863281 -0.00097656 C34.33664142 0.00474681 39.57459908 0.00142015 44.81260586 -0.00454903 C48.84192798 -0.00815419 52.8712379 -0.00701672 56.90056038 -0.00442123 C58.83313058 -0.00375321 60.76570188 -0.00457605 62.6982708 -0.00690079 C65.38872107 -0.00942942 68.07908727 -0.00558493 70.76953125 0 C71.57106628 -0.00202423 72.37260132 -0.00404846 73.19842529 -0.00613403 C78.70334517 0.01512473 78.70334517 0.01512473 80.93188477 1.12939453 C81.91016396 17.54274544 81.85524686 33.71406838 80.93188477 50.12939453 C80.60188477 50.12939453 80.27188477 50.12939453 79.93188477 50.12939453 C79.60188477 34.61939453 79.27188477 19.10939453 78.93188477 3.12939453 C62.95338497 3.04209041 62.95338497 3.04209041 46.97485352 2.98291016 C40.45475918 2.96499909 33.93479163 2.94384375 27.41479492 2.90307617 C22.15633762 2.87040358 16.89801634 2.85252479 11.63946533 2.8447628 C9.63647318 2.83923348 7.63348821 2.8284361 5.6305542 2.81220436 C2.81807553 2.79032517 0.00615403 2.787432 -2.80639648 2.78881836 C-4.03962898 2.77263962 -4.03962898 2.77263962 -5.29777527 2.75613403 C-10.85370092 2.78563452 -15.0015166 3.80080294 -20.06811523 6.12939453 C-21.62777531 8.14919032 -21.62777531 8.14919032 -22.06811523 10.12939453 C-22.39811523 9.13939453 -22.72811523 8.14939453 -23.06811523 7.12939453 C-20.7347819 2.46272786 -20.7347819 2.46272786 -18.06811523 1.12939453 C-12.07898502 0.1172055 -6.05873662 -0.01557635 0 0 Z " fill="#E2A266" transform="translate(37.068115234375,147.87060546875)"/>
<path d="M0 0 C0.02527124 6.24795675 0.04283344 12.49590041 0.05493164 18.74389648 C0.05997298 20.87118014 0.06680591 22.99846031 0.07543945 25.12573242 C0.08751379 28.17627826 0.09323014 31.22677845 0.09765625 34.27734375 C0.10281754 35.23462875 0.10797882 36.19191376 0.11329651 37.1782074 C0.11340981 38.49946373 0.11340981 38.49946373 0.11352539 39.84741211 C0.115746 40.62684677 0.11796661 41.40628143 0.12025452 42.20933533 C0 44 0 44 -1 45 C-3.16480797 45.0989294 -5.33293785 45.129711 -7.5 45.125 C-8.6859375 45.12757813 -9.871875 45.13015625 -11.09375 45.1328125 C-14 45 -14 45 -15 44 C-15.07319621 41.30345146 -15.09242537 38.63308542 -15.0625 35.9375 C-15.05798828 35.17888672 -15.05347656 34.42027344 -15.04882812 33.63867188 C-15.0370068 31.75908129 -15.01907078 29.87953101 -15 28 C-14.34 28 -13.68 28 -13 28 C-13 33.28 -13 38.56 -13 44 C-9.37 44 -5.74 44 -2 44 C-2 29.48 -2 14.96 -2 0 C-5.96 0 -9.92 0 -14 0 C-14.33 1.65 -14.66 3.3 -15 5 C-15.99 5.33 -16.98 5.66 -18 6 C-16.125 1.25 -16.125 1.25 -15 -1 C-9.5340002 -2.82199993 -5.19266753 -2.25729362 0 0 Z " fill="#E9B47F" transform="translate(257,202)"/>
<path d="M0 0 C7.67536627 -0.02312821 15.35072896 -0.04091753 23.02612209 -0.05181217 C26.58977422 -0.05703995 30.15340257 -0.06413569 33.71704102 -0.07543945 C37.81006097 -0.08834176 41.9030558 -0.09322906 45.99609375 -0.09765625 C47.92418129 -0.10539818 47.92418129 -0.10539818 49.89122009 -0.11329651 C51.66294334 -0.11340981 51.66294334 -0.11340981 53.47045898 -0.11352539 C55.03932106 -0.11685631 55.03932106 -0.11685631 56.63987732 -0.12025452 C59 0 59 0 60 1 C60.09304018 2.47354348 60.11746265 3.95150591 60.11352539 5.42797852 C60.11344986 6.36887833 60.11337433 7.30977814 60.11329651 8.27919006 C60.10813522 9.30209641 60.10297394 10.32500275 60.09765625 11.37890625 C60.0962413 12.42070541 60.09482635 13.46250458 60.09336853 14.53587341 C60.0877508 17.87811094 60.0751953 21.22028257 60.0625 24.5625 C60.05748728 26.82226466 60.05292398 29.08203037 60.04882812 31.34179688 C60.03777561 36.89455391 60.02102024 42.44727225 60 48 C59.01 47.505 59.01 47.505 58 47 C58 36.77 58 26.54 58 16 C57.34 16 56.68 16 56 16 C56 15.34 56 14.68 56 14 C56.66 14 57.32 14 58 14 C58 9.71 58 5.42 58 1 C38.86 1 19.72 1 0 1 C0 0.67 0 0.34 0 0 Z " fill="#E08A38" transform="translate(57,150)"/>
<path d="M0 0 C1.14662109 0.00966797 1.14662109 0.00966797 2.31640625 0.01953125 C4.4375 0.1875 4.4375 0.1875 7.4375 1.1875 C7.7675 2.8375 8.0975 4.4875 8.4375 6.1875 C7.7775 6.1875 7.1175 6.1875 6.4375 6.1875 C6.1075 5.1975 5.7775 4.2075 5.4375 3.1875 C1.4775 2.8575 -2.4825 2.5275 -6.5625 2.1875 C-6.995625 3.79625 -7.42875 5.405 -7.875 7.0625 C-9.93200873 14.5855507 -12.02888764 22.0315426 -14.87890625 29.296875 C-15.57483386 31.22161194 -16.07399386 33.13867753 -16.5625 35.125 C-16.8925 36.135625 -17.2225 37.14625 -17.5625 38.1875 C-19.0475 38.6825 -19.0475 38.6825 -20.5625 39.1875 C-20.5625 41.1675 -20.5625 43.1475 -20.5625 45.1875 C-16.9325 45.5175 -13.3025 45.8475 -9.5625 46.1875 C-9.2325 43.8775 -8.9025 41.5675 -8.5625 39.1875 C-7.9025 39.1875 -7.2425 39.1875 -6.5625 39.1875 C-7.2225 41.8275 -7.8825 44.4675 -8.5625 47.1875 C-13.5125 47.1875 -18.4625 47.1875 -23.5625 47.1875 C-22.4387745 39.32142147 -22.4387745 39.32142147 -21.1796875 36.26953125 C-20.90294189 35.58181641 -20.62619629 34.89410156 -20.34106445 34.18554688 C-20.04288818 33.46431641 -19.74471191 32.74308594 -19.4375 32 C-17.38105214 26.91917496 -15.4113679 21.84001547 -13.68359375 16.63671875 C-13.38018066 15.72752686 -13.07676758 14.81833496 -12.76416016 13.8815918 C-12.18020142 12.11223853 -11.60786597 10.33899837 -11.04833984 8.56176758 C-10.78102051 7.75763428 -10.51370117 6.95350098 -10.23828125 6.125 C-10.01052002 5.41214844 -9.78275879 4.69929687 -9.5480957 3.96484375 C-7.47580292 0.22783818 -3.95565679 -0.07362475 0 0 Z " fill="#E1A66E" transform="translate(293.5625,199.8125)"/>
<path d="M0 0 C1.17884766 -0.01224609 2.35769531 -0.02449219 3.57226562 -0.03710938 C4.69955078 -0.03904297 5.82683594 -0.04097656 6.98828125 -0.04296875 C8.01091064 -0.04707764 9.03354004 -0.05118652 10.0871582 -0.05541992 C12.6875 0.1875 12.6875 0.1875 15.6875 2.1875 C16.05078125 4.5 16.05078125 4.5 16 7.1875 C15.99613281 8.074375 15.99226563 8.96125 15.98828125 9.875 C15.6875 12.1875 15.6875 12.1875 13.6875 14.1875 C10.7175 14.1875 7.7475 14.1875 4.6875 14.1875 C4.6875 24.7475 4.6875 35.3075 4.6875 46.1875 C4.3575 46.1875 4.0275 46.1875 3.6875 46.1875 C3.6875 35.2975 3.6875 24.4075 3.6875 13.1875 C6.6575 13.1875 9.6275 13.1875 12.6875 13.1875 C12.6875 9.8875 12.6875 6.5875 12.6875 3.1875 C2.1275 2.8575 -8.4325 2.5275 -19.3125 2.1875 C-19.6425 5.1575 -19.9725 8.1275 -20.3125 11.1875 C-20.6425 11.1875 -20.9725 11.1875 -21.3125 11.1875 C-21.3125 7.8875 -21.3125 4.5875 -21.3125 1.1875 C-14.1999556 0.09123853 -7.18827324 0.0039957 0 0 Z " fill="#ECCEB1" transform="translate(403.3125,199.8125)"/>
<path d="M0 0 C-0.33 0.99 -0.66 1.98 -1 3 C-19.315 2.505 -19.315 2.505 -38 2 C-38 6.62 -38 11.24 -38 16 C-31.07 16 -24.14 16 -17 16 C-20.80035644 17.90017822 -21.63435491 18.24092197 -25.546875 17.9765625 C-26.81337891 17.89921875 -26.81337891 17.89921875 -28.10546875 17.8203125 C-28.97816406 17.75585938 -29.85085937 17.69140625 -30.75 17.625 C-31.63816406 17.56828125 -32.52632812 17.5115625 -33.44140625 17.453125 C-35.6282691 17.31203707 -37.81424636 17.15734024 -40 17 C-40 11.39 -40 5.78 -40 0 C-26.53866667 -0.99304918 -13.46636561 -0.83619646 0 0 Z " fill="#DC924B" transform="translate(163,149)"/>
<path d="M0 0 C3 3 3 3 3.36076355 4.99320984 C3.35410172 5.75043839 3.34743988 6.50766693 3.34057617 7.2878418 C3.34034958 8.14850754 3.34012299 9.00917328 3.33988953 9.8959198 C3.32440567 10.82100845 3.30892181 11.74609711 3.29296875 12.69921875 C3.28872391 13.64940384 3.28447906 14.59958893 3.28010559 15.5785675 C3.26330484 18.61516588 3.22564992 21.65110202 3.1875 24.6875 C3.17245497 26.74543313 3.15876625 28.80337665 3.14648438 30.86132812 C3.11339671 35.90780748 3.06160462 40.95379144 3 46 C2.01 46 1.02 46 0 46 C0 30.82 0 15.64 0 0 Z " fill="#DC8C44" transform="translate(79,238)"/>
<path d="M0 0 C0 0.33 0 0.66 0 1 C-1.16015625 1.02126953 -1.16015625 1.02126953 -2.34375 1.04296875 C-9.10108523 1.35240118 -15.0499089 1.96853754 -20 7 C-20.34771811 8.32965447 -20.68304642 9.66267831 -21 11 C-21.804375 11.2475 -22.60875 11.495 -23.4375 11.75 C-26.35868382 12.81858127 -26.35868382 12.81858127 -27.3125 16.3125 C-28.46337611 22.13141564 -28.16192029 28.09890481 -28 34 C-27.34 34 -26.68 34 -26 34 C-20.86951285 39.50588865 -20.86951285 39.50588865 -20 44 C-25.39607167 39.69792642 -29.55078741 36.00452751 -31 29 C-31.74094514 20.49337987 -30.24190967 14.54348048 -24.8125 7.8125 C-17.3851292 -0.13988245 -10.63011353 -0.58335989 0 0 Z " fill="#E3A367" transform="translate(513,200)"/>
<path d="M0 0 C0 0.66 0 1.32 0 2 C-2.64 2 -5.28 2 -8 2 C-7.93941406 2.59538574 -7.87882812 3.19077148 -7.81640625 3.80419922 C-7.54323988 6.49436263 -7.27160139 9.18467816 -7 11.875 C-6.90460938 12.81214844 -6.80921875 13.74929687 -6.7109375 14.71484375 C-6.57558594 16.05869141 -6.57558594 16.05869141 -6.4375 17.4296875 C-6.35371094 18.25710449 -6.26992188 19.08452148 -6.18359375 19.93701172 C-6 22 -6 22 -6 24 C-7.32 24 -8.64 24 -10 24 C-10 23.01 -10 22.02 -10 21 C-11.31266518 19.64631404 -12.64567325 18.31200404 -14 17 C-14 16.34 -14 15.68 -14 15 C-14.66 15 -15.32 15 -16 15 C-16.33 12.36 -16.66 9.72 -17 7 C-14.52806709 9.96631949 -12.74381547 12.51236907 -11 16 C-10.67 11.38 -10.34 6.76 -10 2 C-3.375 0 -3.375 0 0 0 Z " fill="#E7AB68" transform="translate(364,200)"/>
<path d="M0 0 C2.01913623 2.01913623 2.63545044 3.19868979 3.625 5.8125 C3.88539063 6.47894531 4.14578125 7.14539063 4.4140625 7.83203125 C5.07993114 10.2957452 5.09755422 12.45915603 5 15 C2.70858714 15.05384521 0.41681812 15.09272087 -1.875 15.125 C-3.78925781 15.15980469 -3.78925781 15.15980469 -5.7421875 15.1953125 C-9 15 -9 15 -11 13 C-11.125 10.375 -11.125 10.375 -11 8 C-10.01 8.33 -9.02 8.66 -8 9 C-8 9.66 -8 10.32 -8 11 C-5.03 10.34 -2.06 9.68 1 9 C0.67 8.34 0.34 7.68 0 7 C-0.04022391 4.6670134 -0.04320247 2.33293334 0 0 Z " fill="#E78329" transform="translate(465,232)"/>
<path d="M0 0 C0.33 0 0.66 0 1 0 C1 14.85 1 29.7 1 45 C4.63 45 8.26 45 12 45 C11.97679687 43.80761719 11.95359375 42.61523438 11.9296875 41.38671875 C11.91092822 39.82031876 11.89272819 38.253912 11.875 36.6875 C11.85824219 35.90181641 11.84148437 35.11613281 11.82421875 34.30664062 C11.81777344 33.54931641 11.81132812 32.79199219 11.8046875 32.01171875 C11.79421387 31.31522217 11.78374023 30.61872559 11.77294922 29.90112305 C12 28 12 28 14 25 C14.82514784 27.83384108 15.07936233 30.16935251 14.87890625 33.109375 C14.83056641 33.86347656 14.78222656 34.61757812 14.73242188 35.39453125 C14.64831055 36.56048828 14.64831055 36.56048828 14.5625 37.75 C14.51029297 38.54277344 14.45808594 39.33554688 14.40429688 40.15234375 C14.27510676 42.10193997 14.13830035 44.05102886 14 46 C9.38 46 4.76 46 0 46 C0 30.82 0 15.64 0 0 Z " fill="#E4B183" transform="translate(209,201)"/>
<path d="M0 0 C1.41213395 2.15434769 1.42947725 3.20992847 1.21875 5.7578125 C1.16396484 6.51513672 1.10917969 7.27246094 1.05273438 8.05273438 C0.97990234 8.83841797 0.90707031 9.62410156 0.83203125 10.43359375 C0.74018555 11.62952148 0.74018555 11.62952148 0.64648438 12.84960938 C0.49339156 14.81626328 0.32082416 16.78138364 0.14453125 18.74609375 C-0.84546875 18.74609375 -1.83546875 18.74609375 -2.85546875 18.74609375 C-2.85546875 13.13609375 -2.85546875 7.52609375 -2.85546875 1.74609375 C-10.77546875 1.74609375 -18.69546875 1.74609375 -26.85546875 1.74609375 C-26.85546875 1.08609375 -26.85546875 0.42609375 -26.85546875 -0.25390625 C-22.75245952 -0.50842209 -18.64831399 -0.72817071 -14.54296875 -0.94140625 C-13.37572266 -1.01423828 -12.20847656 -1.08707031 -11.00585938 -1.16210938 C-9.88759766 -1.21689453 -8.76933594 -1.27167969 -7.6171875 -1.328125 C-6.06970825 -1.41453247 -6.06970825 -1.41453247 -4.4909668 -1.50268555 C-1.85546875 -1.25390625 -1.85546875 -1.25390625 0 0 Z " fill="#DB8536" transform="translate(58.85546875,284.25390625)"/>
<path d="M0 0 C2.0625 1.6875 2.0625 1.6875 4 4 C3.6875 6.375 3.6875 6.375 3 9 C3.32670903 11.00109278 3.65977214 13.00116131 4 15 C3.5625 17.375 3.5625 17.375 3 19 C1.68 18.67 0.36 18.34 -1 18 C-1.33 16.68 -1.66 15.36 -2 14 C-0.68 14.66 0.64 15.32 2 16 C1.57742724 14.5164999 1.13643678 13.03823576 0.6875 11.5625 C0.32205078 10.32693359 0.32205078 10.32693359 -0.05078125 9.06640625 C-0.52064453 8.04353516 -0.52064453 8.04353516 -1 7 C-4.01490557 5.99503148 -6.04181692 5.89664697 -9.1875 5.9375 C-10.08855469 5.94652344 -10.98960937 5.95554688 -11.91796875 5.96484375 C-12.94857422 5.98224609 -12.94857422 5.98224609 -14 6 C-14 5.34 -14 4.68 -14 4 C-13.34 4 -12.68 4 -12 4 C-12 3.34 -12 2.68 -12 2 C-9.36 1.67 -6.72 1.34 -4 1 C-4 1.66 -4 2.32 -4 3 C-3.01 3.33 -2.02 3.66 -1 4 C-0.67 2.68 -0.34 1.36 0 0 Z " fill="#E59546" transform="translate(515,209)"/>
<path d="M0 0 C-3.09055955 2.06037303 -3.70926162 2.24799242 -7.19604492 2.22705078 C-8.03668991 2.22689972 -8.8773349 2.22674866 -9.74345398 2.22659302 C-10.64666885 2.21627045 -11.54988373 2.20594788 -12.48046875 2.1953125 C-13.87245232 2.19106766 -13.87245232 2.19106766 -15.29255676 2.18673706 C-18.25766879 2.17553836 -21.22247921 2.15043435 -24.1875 2.125 C-26.19726126 2.1149698 -28.20702726 2.10584402 -30.21679688 2.09765625 C-35.14464753 2.07560004 -40.07227262 2.04107229 -45 2 C-45.33 1.34 -45.66 0.68 -46 0 C-40.09196776 -0.16774673 -34.18380021 -0.3282928 -28.27539062 -0.48217773 C-26.26557148 -0.5355372 -24.25580351 -0.59086175 -22.24609375 -0.64819336 C-19.35688306 -0.73027321 -16.46756189 -0.80527752 -13.578125 -0.87890625 C-12.68007141 -0.90594131 -11.78201782 -0.93297638 -10.85675049 -0.96083069 C-9.5958963 -0.99097511 -9.5958963 -0.99097511 -8.30957031 -1.02172852 C-7.20370575 -1.05170677 -7.20370575 -1.05170677 -6.07550049 -1.08229065 C-3.92352855 -0.99696802 -2.06470835 -0.59489159 0 0 Z " fill="#E8BF98" transform="translate(78,214)"/>
<path d="M0 0 C0.33 0 0.66 0 1 0 C1.7850893 13.42840946 2.17004946 26.5894331 1 40 C-2.96 40 -6.92 40 -11 40 C-11.66 38.35 -12.32 36.7 -13 35 C-11.68 35 -10.36 35 -9 35 C-9 35.99 -9 36.98 -9 38 C-6.03 38.33 -3.06 38.66 0 39 C-0.33 38.34 -0.66 37.68 -1 37 C-1.09661729 35.33945876 -1.1307559 33.67506714 -1.1328125 32.01171875 C-1.13571289 30.49481445 -1.13571289 30.49481445 -1.13867188 28.94726562 C-1.13416016 27.87154297 -1.12964844 26.79582031 -1.125 25.6875 C-1.12306641 24.60275391 -1.12113281 23.51800781 -1.11914062 22.40039062 C-1.07868842 14.88976475 -0.8171296 7.47089923 0 0 Z " fill="#ECAB6D" transform="translate(367,207)"/>
<path d="M0 0 C1.58179615 -0.10867302 3.16577153 -0.18589827 4.75 -0.25 C5.63171875 -0.29640625 6.5134375 -0.3428125 7.421875 -0.390625 C10.91148224 0.13810337 11.80702928 1.25547729 14 4 C15.54852488 6.31681254 16.9440547 8.69832368 18.3125 11.125 C18.68439453 11.75792969 19.05628906 12.39085937 19.43945312 13.04296875 C20.36049248 14.65864672 21.18847911 16.32663135 22 18 C21.67 18.66 21.34 19.32 21 20 C19.125 19.875 19.125 19.875 17 19 C15.9375 16.3125 15.9375 16.3125 15 13 C14.484375 11.989375 13.96875 10.97875 13.4375 9.9375 C12 7 12 7 11 2 C7.37 1.67 3.74 1.34 0 1 C0 0.67 0 0.34 0 0 Z " fill="#E69648" transform="translate(211,200)"/>
<path d="M0 0 C0.66 0 1.32 0 2 0 C2.63149942 10.67910627 3.17291697 21.2983611 3 32 C2.34 32 1.68 32 1 32 C-0.2138361 21.33558287 -0.09531193 10.71729679 0 0 Z " fill="#E1893B" transform="translate(115,252)"/>
<path d="M0 0 C3 3 3 3 3.36076355 4.99320984 C3.35410172 5.75043839 3.34743988 6.50766693 3.34057617 7.2878418 C3.34034958 8.14850754 3.34012299 9.00917328 3.33988953 9.8959198 C3.32440567 10.82100845 3.30892181 11.74609711 3.29296875 12.69921875 C3.28872391 13.64940384 3.28447906 14.59958893 3.28010559 15.5785675 C3.26330484 18.61516588 3.22564992 21.65110202 3.1875 24.6875 C3.17245497 26.74543313 3.15876625 28.80337665 3.14648438 30.86132812 C3.11339671 35.90780748 3.06160462 40.95379144 3 46 C2.67 46 2.34 46 2 46 C1.34 30.82 0.68 15.64 0 0 Z " fill="#EFC79C" transform="translate(79,238)"/>
<path d="M0 0 C0.33 0 0.66 0 1 0 C1.01981934 1.00264893 1.03963867 2.00529785 1.06005859 3.03833008 C1.13694906 6.8089025 1.22552686 10.5791302 1.31738281 14.34936523 C1.35533196 15.97169112 1.39023972 17.59409145 1.421875 19.21655273 C1.18940823 34.00295044 1.18940823 34.00295044 5 48 C1.125 46.25 1.125 46.25 0 44 C-0.08934406 42.58026727 -0.11758978 41.15642209 -0.11352539 39.73388672 C-0.11344986 38.85312469 -0.11337433 37.97236267 -0.11329651 37.06491089 C-0.10813522 36.11278717 -0.10297394 35.16066345 -0.09765625 34.1796875 C-0.0962413 33.20589142 -0.09482635 32.23209534 -0.09336853 31.22879028 C-0.08775973 28.11082927 -0.07520573 24.9929394 -0.0625 21.875 C-0.05748613 19.76432395 -0.05292303 17.65364678 -0.04882812 15.54296875 C-0.03778745 10.36195479 -0.02104073 5.18098248 0 0 Z " fill="#DB9756" transform="translate(100,166)"/>
<path d="M0 0 C1.299375 -0.02126953 1.299375 -0.02126953 2.625 -0.04296875 C5 0.1875 5 0.1875 8 2.1875 C9.04487958 4.52986742 9.92967983 6.77022519 10.75 9.1875 C10.98332031 9.82945312 11.21664063 10.47140625 11.45703125 11.1328125 C12.03806231 12.79588344 12.52593266 14.49083793 13 16.1875 C12.67 16.8475 12.34 17.5075 12 18.1875 C8.30912706 13.38936518 7.00332648 9.12824887 6 3.1875 C4.04174127 3.16055149 2.08337774 3.14112782 0.125 3.125 C-1.51082031 3.10759766 -1.51082031 3.10759766 -3.1796875 3.08984375 C-5.95177546 2.99005697 -5.95177546 2.99005697 -8 4.1875 C-8 3.1975 -8 2.2075 -8 1.1875 C-5.07345473 0.21198491 -3.05345004 0.02271912 0 0 Z " fill="#E2B384" transform="translate(447,199.8125)"/>
<path d="M0 0 C0.99 0.33 1.98 0.66 3 1 C3 1.99 3 2.98 3 4 C3.99 3.67 4.98 3.34 6 3 C7.32 4.65 8.64 6.3 10 8 C10 7.34 10 6.68 10 6 C10.99 6 11.98 6 13 6 C13.144375 5.38125 13.28875 4.7625 13.4375 4.125 C14 2 14 2 15 0 C15.66 0 16.32 0 17 0 C14.4 7 14.4 7 12 10 C9.0625 10.625 9.0625 10.625 6 10 C2.95300596 7.03764468 1.3694303 3.99417171 0 0 Z " fill="#E6A364" transform="translate(224,230)"/>
<path d="M0 0 C0.99 0 1.98 0 3 0 C3.12375 0.639375 3.2475 1.27875 3.375 1.9375 C3.684375 2.9584375 3.684375 2.9584375 4 4 C4.66 4.33 5.32 4.66 6 5 C6 6.32 6 7.64 6 9 C3.29120665 10.35439668 0.99066732 10.06501451 -2 10 C-2.98120464 6.94736336 -2.98120464 5.05263664 -2 2 C-1.34 2 -0.68 2 0 2 C0 1.34 0 0.68 0 0 Z M0 4 C-0.33 4.99 -0.66 5.98 -1 7 C-0.01 7 0.98 7 2 7 C2 6.01 2 5.02 2 4 C1.34 4 0.68 4 0 4 Z " fill="#E18836" transform="translate(446,220)"/>
<path d="M0 0 C0.99 0.33 1.98 0.66 3 1 C3.1946838 3.77050026 3.38102792 6.54113002 3.5625 9.3125 C3.61857422 10.09818359 3.67464844 10.88386719 3.73242188 11.69335938 C3.78076172 12.45068359 3.82910156 13.20800781 3.87890625 13.98828125 C3.9260376 14.68477783 3.97316895 15.38127441 4.02172852 16.09887695 C4 18 4 18 3 21 C5.97 21 8.94 21 12 21 C12 19.02 12 17.04 12 15 C12.33 15 12.66 15 13 15 C13 17.31 13 19.62 13 22 C9.37 22 5.74 22 2 22 C2 16.72 2 11.44 2 6 C1.01 6 0.02 6 -1 6 C-0.67 4.02 -0.34 2.04 0 0 Z " fill="#E58D3A" transform="translate(242,224)"/>
<path d="M0 0 C6.21131774 -0.07408447 12.42237905 -0.12857114 18.6340332 -0.16479492 C20.74768554 -0.1798936 22.86130648 -0.20037426 24.97485352 -0.22631836 C28.01065815 -0.26265397 31.04604906 -0.27971544 34.08203125 -0.29296875 C35.5024749 -0.31619453 35.5024749 -0.31619453 36.95161438 -0.33988953 C38.27264412 -0.34022942 38.27264412 -0.34022942 39.62036133 -0.34057617 C40.39535477 -0.34723801 41.17034821 -0.35389984 41.96882629 -0.36076355 C44.5014923 0.08907172 45.3853804 1.05299358 47 3 C46.01 3 45.02 3 44 3 C43.505 2.505 43.505 2.505 43 2 C41.65016252 1.87814857 40.29425299 1.82233169 38.93920898 1.79467773 C38.07839218 1.77473251 37.21757538 1.75478729 36.33067322 1.73423767 C35.39526199 1.71752518 34.45985077 1.70081268 33.49609375 1.68359375 C32.06657127 1.6524221 32.06657127 1.6524221 30.60816956 1.62062073 C27.5513559 1.55501823 24.49445344 1.49619082 21.4375 1.4375 C19.37043337 1.39432494 17.30337586 1.35071099 15.23632812 1.30664062 C10.15764405 1.19932599 5.0788703 1.09808909 0 1 C0 0.67 0 0.34 0 0 Z " fill="#C68C53" transform="translate(32,235)"/>
<path d="M0 0 C1.47075246 4.41225737 2.36884358 7.48281619 1 12 C-0.65 12 -2.3 12 -4 12 C-3.88648483 10.18674449 -3.75887039 8.37436643 -3.625 6.5625 C-3.55539062 5.55316406 -3.48578125 4.54382813 -3.4140625 3.50390625 C-3.27742188 2.67761719 -3.14078125 1.85132813 -3 1 C-1 0 -1 0 0 0 Z " fill="#E98225" transform="translate(488,215)"/>
<path d="M0 0 C2.88899714 2.88899714 3.75497134 6.46421142 5.0625 10.25 C5.33126953 11.00152344 5.60003906 11.75304687 5.87695312 12.52734375 C7.32688705 16.6710452 8.43564186 20.62448258 9 25 C8.34 25 7.68 25 7 25 C6.81824219 24.443125 6.63648438 23.88625 6.44921875 23.3125 C5.18507682 19.47469475 3.88740595 15.68498863 2.375 11.9375 C0.85249109 7.97578833 0.37664193 4.21838961 0 0 Z " fill="#E4A665" transform="translate(302,207)"/>
<path d="M0 0 C2 2 2 2 2.125 5.625 C2.08375 6.73875 2.0425 7.8525 2 9 C0.25 10.125 0.25 10.125 -2 11 C-4.25 10.125 -4.25 10.125 -6 9 C-5.34 6.69 -4.68 4.38 -4 2 C-2.68 2 -1.36 2 0 2 C0 1.34 0 0.68 0 0 Z M-1 4 C-1.33 5.32 -1.66 6.64 -2 8 C-1.34 8 -0.68 8 0 8 C-0.33 6.68 -0.66 5.36 -1 4 Z " fill="#E28A39" transform="translate(294,219)"/>
<path d="M0 0 C3.96 0 7.92 0 12 0 C12 1.32 12 2.64 12 4 C8.04 4 4.08 4 0 4 C0 2.68 0 1.36 0 0 Z " fill="#E68327" transform="translate(425,242)"/>
<path d="M0 0 C0.66 0.33 1.32 0.66 2 1 C1.86263203 3.95341135 1.64832501 6.20514952 -0.26171875 8.546875 C-2.55575223 10.60399318 -4.1509584 12.02294707 -7.3125 11.9375 C-9 11 -9 11 -10 9 C-7.525 9.495 -7.525 9.495 -5 10 C-5.33 9.01 -5.66 8.02 -6 7 C-5.0625 4.8125 -5.0625 4.8125 -4 3 C-3.67 3.66 -3.34 4.32 -3 5 C-2.01 5 -1.02 5 0 5 C0 3.35 0 1.7 0 0 Z " fill="#E19953" transform="translate(529,238)"/>
<path d="M0 0 C1.79246467 2.62752074 1.19723477 4.77760463 0.83203125 7.86523438 C0.71214844 8.95191406 0.59226562 10.03859375 0.46875 11.15820312 C0.36175781 11.98964844 0.25476563 12.82109375 0.14453125 13.67773438 C-0.18546875 13.67773438 -0.51546875 13.67773438 -0.85546875 13.67773438 C-1.35046875 7.24273437 -1.35046875 7.24273437 -1.85546875 0.67773438 C-10.10546875 0.67773438 -18.35546875 0.67773438 -26.85546875 0.67773438 C-26.85546875 0.34773438 -26.85546875 0.01773437 -26.85546875 -0.32226562 C-22.75245952 -0.57678146 -18.64831399 -0.79653009 -14.54296875 -1.00976562 C-13.37572266 -1.08259766 -12.20847656 -1.15542969 -11.00585938 -1.23046875 C-9.88759766 -1.28525391 -8.76933594 -1.34003906 -7.6171875 -1.39648438 C-6.06970825 -1.48289185 -6.06970825 -1.48289185 -4.4909668 -1.57104492 C-1.85546875 -1.32226562 -1.85546875 -1.32226562 0 0 Z " fill="#E9B481" transform="translate(58.85546875,284.322265625)"/>
<path d="M0 0 C0.33 0 0.66 0 1 0 C1.5505289 6.33108231 -0.06166589 11.37883909 -3 17 C-4.63671875 18.796875 -4.63671875 18.796875 -6 20 C-5.36757331 15.27497299 -4.08186437 11.09429803 -2.4375 6.625 C-2.20353516 5.98433594 -1.96957031 5.34367188 -1.72851562 4.68359375 C-1.15700381 3.1206839 -0.57915771 1.56009273 0 0 Z " fill="#E7A669" transform="translate(438,204)"/>
<path d="M0 0 C0 0.33 0 0.66 0 1 C-0.66386719 1.12117187 -1.32773437 1.24234375 -2.01171875 1.3671875 C-8.73718971 2.48851907 -8.73718971 2.48851907 -15 5 C-16.34410262 7.01735205 -16.34410262 7.01735205 -17 9 C-17.33 8.01 -17.66 7.02 -18 6 C-15.66666667 1.33333333 -15.66666667 1.33333333 -13 0 C-11.54860491 -0.25217289 -10.08827997 -0.45485117 -8.625 -0.625 C-7.85414062 -0.72039062 -7.08328125 -0.81578125 -6.2890625 -0.9140625 C-3.97179747 -1.0010588 -2.20658162 -0.67507292 0 0 Z " fill="#E3A465" transform="translate(32,149)"/>
<path d="M0 0 C0.66 0 1.32 0 2 0 C2.66 2.31 3.32 4.62 4 7 C7.63 7.33 11.26 7.66 15 8 C15.33 6.68 15.66 5.36 16 4 C16.33 5.32 16.66 6.64 17 8 C12.05183286 10.80396138 7.38317715 9.77350507 2 9 C1.01 6.36 0.02 3.72 -1 1 C-0.67 0.67 -0.34 0.34 0 0 Z " fill="#DFA666" transform="translate(300,238)"/>
<path d="M0 0 C0.33 0 0.66 0 1 0 C1.33 4.29 1.66 8.58 2 13 C-1.96 13 -5.92 13 -10 13 C-10.66 11.35 -11.32 9.7 -12 8 C-10.68 8 -9.36 8 -8 8 C-8 8.99 -8 9.98 -8 11 C-5.03 11.33 -2.06 11.66 1 12 C0.67 11.34 0.34 10.68 0 10 C-0.06996014 8.29297265 -0.08440154 6.58331997 -0.0625 4.875 C-0.05347656 3.96492187 -0.04445313 3.05484375 -0.03515625 2.1171875 C-0.02355469 1.41851562 -0.01195312 0.71984375 0 0 Z " fill="#DC9751" transform="translate(366,234)"/>
<path d="M0 0 C-0.33 6.27 -0.66 12.54 -1 19 C-1.33 19 -1.66 19 -2 19 C-2 13.39 -2 7.78 -2 2 C-4.97 2 -7.94 2 -11 2 C-11.33 3.32 -11.66 4.64 -12 6 C-12 4.35 -12 2.7 -12 1 C-7.915021 0.45533613 -4.1274515 0 0 0 Z " fill="#E08D42" transform="translate(368,201)"/>
<path d="M0 0 C6.75 0.875 6.75 0.875 9 2 C10.53668865 2.22467831 12.07968054 2.40796805 13.625 2.5625 C14.44226563 2.64628906 15.25953125 2.73007813 16.1015625 2.81640625 C16.72804688 2.87699219 17.35453125 2.93757812 18 3 C18 2.34 18 1.68 18 1 C20.97 1 23.94 1 27 1 C23.37943176 4.62056824 18.53395334 4.18003867 13.625 4.25 C8.26059597 4.22564402 4.66457767 3.60348521 0 1 C0 0.67 0 0.34 0 0 Z " fill="#E0A060" transform="translate(493,244)"/>
<path d="M0 0 C3.83973217 5.1196429 4.11784632 7.75414491 4 14 C3.01 13.34 2.02 12.68 1 12 C0.34 12 -0.32 12 -1 12 C-0.67 8.04 -0.34 4.08 0 0 Z " fill="#E18933" transform="translate(311,232)"/>
<path d="M0 0 C4.49992245 1.25579231 7.63305557 2.7265818 11 6 C12.3125 8.75 12.3125 8.75 13 11 C12.34 11 11.68 11 11 11 C11 10.34 11 9.68 11 9 C9.68 9 8.36 9 7 9 C6.71125 8.360625 6.4225 7.72125 6.125 7.0625 C5.17176549 4.84793921 5.17176549 4.84793921 3 4 C3 3.34 3 2.68 3 2 C1.68 1.67 0.36 1.34 -1 1 C-0.67 0.67 -0.34 0.34 0 0 Z " fill="#E2A063" transform="translate(514,201)"/>
<path d="M0 0 C0 3.19610552 -0.54671542 4.41717626 -2 7.1875 C-2.37125 7.90292969 -2.7425 8.61835938 -3.125 9.35546875 C-3.41375 9.89816406 -3.7025 10.44085938 -4 11 C-6.64 10.67 -9.28 10.34 -12 10 C-11.67 8.68 -11.34 7.36 -11 6 C-9.35 6.99 -7.7 7.98 -6 9 C-5.938125 8.2575 -5.87625 7.515 -5.8125 6.75 C-4.75814862 3.1814261 -3.00090227 2.07754772 0 0 Z " fill="#E9AD69" transform="translate(510,224)"/>
<path d="M0 0 C0.66 0.33 1.32 0.66 2 1 C2.625 3.0625 2.625 3.0625 3 5 C4.32 4.67 5.64 4.34 7 4 C6.39816251 6.02045442 5.72693904 8.02111039 5 10 C4.01 10.495 4.01 10.495 3 11 C2.34 9.35 1.68 7.7 1 6 C0.34 6 -0.32 6 -1 6 C-0.67 4.02 -0.34 2.04 0 0 Z " fill="#EA8D3A" transform="translate(344,222)"/>
<path d="M0 0 C3.63 0 7.26 0 11 0 C11.33 0.99 11.66 1.98 12 3 C8.04 3 4.08 3 0 3 C0 2.01 0 1.02 0 0 Z " fill="#ED811F" transform="translate(441,203)"/>
<path d="M0 0 C3 1 3 1 4 3 C4.08449628 4.7404417 4.10723024 6.48409722 4.09765625 8.2265625 C4.09282227 9.7734375 4.09282227 9.7734375 4.08789062 11.3515625 C4.07951172 12.43179688 4.07113281 13.51203125 4.0625 14.625 C4.05798828 15.71296875 4.05347656 16.8009375 4.04882812 17.921875 C4.03701776 20.61463789 4.02054778 23.30729188 4 26 C3.67 26 3.34 26 3 26 C2.98018066 25.42556152 2.96036133 24.85112305 2.93994141 24.25927734 C2.84407976 21.63076167 2.73465126 19.00297509 2.625 16.375 C2.57859375 15.01955078 2.57859375 15.01955078 2.53125 13.63671875 C2.31706465 8.74615328 1.87645845 4.59198368 0 0 Z " fill="#DF9855" transform="translate(163,150)"/>
<path d="M0 0 C0.99 0.33 1.98 0.66 3 1 C3 2.65 3 4.3 3 6 C6.96 6 10.92 6 15 6 C15.33 4.68 15.66 3.36 16 2 C16 3.65 16 5.3 16 7 C13.70858714 7.05384521 11.41681812 7.09272087 9.125 7.125 C7.21074219 7.15980469 7.21074219 7.15980469 5.2578125 7.1953125 C2 7 2 7 0 5 C-0.125 2.375 -0.125 2.375 0 0 Z " fill="#DA9B61" transform="translate(454,240)"/>
<path d="M0 0 C2 2 2 2 3 5 C4.093125 4.979375 5.18625 4.95875 6.3125 4.9375 C10 5 10 5 13 6 C13 6.66 13 7.32 13 8 C6.07 7.505 6.07 7.505 -1 7 C-0.67 4.69 -0.34 2.38 0 0 Z " fill="#E48D3E" transform="translate(383,206)"/>
<path d="M0 0 C0.33 1.32 0.66 2.64 1 4 C-1.31 3.67 -3.62 3.34 -6 3 C-6.33 3.99 -6.66 4.98 -7 6 C-7.66 6 -8.32 6 -9 6 C-7.01260984 0.46369883 -5.82303895 -0.15323787 0 0 Z " fill="#EB8021" transform="translate(502,235)"/>
<path d="M0 0 C1.8871875 0.0309375 1.8871875 0.0309375 3.8125 0.0625 C3.4825 1.0525 3.1525 2.0425 2.8125 3.0625 C-0.8175 3.3925 -4.4475 3.7225 -8.1875 4.0625 C-7.8575 3.0725 -7.5275 2.0825 -7.1875 1.0625 C-4.43671116 0.14557039 -2.82801087 -0.04636083 0 0 Z " fill="#E78834" transform="translate(413.1875,209.9375)"/>
<path d="M0 0 C0.66 0.66 1.32 1.32 2 2 C-1.63 2 -5.26 2 -9 2 C-9.33 3.65 -9.66 5.3 -10 7 C-10.99 7.33 -11.98 7.66 -13 8 C-11.125 3.25 -11.125 3.25 -10 1 C-6.47940432 -0.17353189 -3.693507 -0.20146402 0 0 Z " fill="#E6B98C" transform="translate(252,200)"/>
<path d="M0 0 C0.33 0 0.66 0 1 0 C1.05395478 1.62463842 1.09277195 3.24978541 1.125 4.875 C1.14820313 5.77992188 1.17140625 6.68484375 1.1953125 7.6171875 C1 10 1 10 -1 12 C-3.3828125 12.1953125 -3.3828125 12.1953125 -6.125 12.125 C-7.49011719 12.09792969 -7.49011719 12.09792969 -8.8828125 12.0703125 C-9.58148438 12.04710937 -10.28015625 12.02390625 -11 12 C-11 11.67 -11 11.34 -11 11 C-8.03 11 -5.06 11 -2 11 C-1.34 7.37 -0.68 3.74 0 0 Z " fill="#F3BF66" transform="translate(418,202)"/>
<path d="M0 0 C0.33 0 0.66 0 1 0 C0.979375 1.093125 0.95875 2.18625 0.9375 3.3125 C0.81455548 6.94384191 0.81455548 6.94384191 2 10 C1.01 10 0.02 10 -1 10 C-1.33 10.66 -1.66 11.32 -2 12 C-3.12377697 8.69564916 -2.89554742 6.9493138 -1.5625 3.75 C-1.27503906 3.04359375 -0.98757813 2.3371875 -0.69140625 1.609375 C-0.46324219 1.07828125 -0.23507812 0.5471875 0 0 Z " fill="#E39B54" transform="translate(428,232)"/>
<path d="M0 0 C9.08595492 -0.62422591 9.08595492 -0.62422591 12.5625 1.75 C13.93759565 3.90232362 14.6406828 5.4847796 15 8 C13.68 7.34 12.36 6.68 11 6 C11 4.68 11 3.36 11 2 C7.37 1.67 3.74 1.34 0 1 C0 0.67 0 0.34 0 0 Z " fill="#E9C09A" transform="translate(211,200)"/>
<path d="M0 0 C0.99 0 1.98 0 3 0 C3 1.32 3 2.64 3 4 C2.01 4 1.02 4 0 4 C0 4.66 0 5.32 0 6 C0.99 6 1.98 6 3 6 C3 6.66 3 7.32 3 8 C1.35 8 -0.3 8 -2 8 C-2 6.02 -2 4.04 -2 2 C-1.34 2 -0.68 2 0 2 C0 1.34 0 0.68 0 0 Z " fill="#EAA466" transform="translate(446,220)"/>
<path d="M0 0 C0.33 0 0.66 0 1 0 C1.13277344 0.77085937 1.26554687 1.54171875 1.40234375 2.3359375 C1.57894531 3.33882812 1.75554687 4.34171875 1.9375 5.375 C2.11152344 6.37273437 2.28554687 7.37046875 2.46484375 8.3984375 C2.87712062 10.96909656 2.87712062 10.96909656 4 13 C0.125 11.25 0.125 11.25 -1 9 C-1.18704404 6.30986661 -1.08581391 3.70313823 -1 1 C-0.67 0.67 -0.34 0.34 0 0 Z " fill="#E4A265" transform="translate(101,201)"/>
<path d="M0 0 C0.33 0 0.66 0 1 0 C1 4.29 1 8.58 1 13 C0.34 13 -0.32 13 -1 13 C-1.22245393 11.39773045 -1.42746669 9.79303233 -1.625 8.1875 C-1.74101563 7.29417969 -1.85703125 6.40085937 -1.9765625 5.48046875 C-2 3 -2 3 0 0 Z " fill="#E89B5A" transform="translate(117,271)"/>
<path d="M0 0 C0.33 0 0.66 0 1 0 C0.91291962 2.10494301 0.80474307 4.20902142 0.6875 6.3125 C0.62949219 7.48425781 0.57148437 8.65601563 0.51171875 9.86328125 C-0.01604768 13.0983686 -0.42380724 14.08684881 -3 16 C-3.24222254 11.88221684 -2.36905536 8.86556807 -1 5 C-0.63893903 3.33911955 -0.29537827 1.67381019 0 0 Z " fill="#E7A071" transform="translate(530,220)"/>
<path d="M0 0 C2.95749791 3.46741134 5.07848152 6.86873527 7 11 C5.68 10.67 4.36 10.34 3 10 C3 9.34 3 8.68 3 8 C2.34 8 1.68 8 1 8 C0.67 5.36 0.34 2.72 0 0 Z " fill="#E4A363" transform="translate(347,207)"/>
<path d="M0 0 C0.33 0 0.66 0 1 0 C1.33 5.28 1.66 10.56 2 16 C1.01 16 0.02 16 -1 16 C-0.67 10.72 -0.34 5.44 0 0 Z " fill="#D99C5D" transform="translate(57,287)"/>
<path d="M0 0 C1.75099539 2.62649308 2.69309325 4.61808587 3.6875 7.5625 C3.95949219 8.34753906 4.23148437 9.13257813 4.51171875 9.94140625 C5 12 5 12 4 14 C3.34 12.02 2.68 10.04 2 8 C1.34 8 0.68 8 0 8 C0 5.36 0 2.72 0 0 Z " fill="#E6AA6E" transform="translate(460,218)"/>
<path d="M0 0 C0.33 0 0.66 0 1 0 C1.33 1.98 1.66 3.96 2 6 C-0.31 7.32 -2.62 8.64 -5 10 C-3.66654496 6.40992874 -2.1056769 3.20429093 0 0 Z " fill="#E9A568" transform="translate(238,208)"/>
<path d="M0 0 C3.96 0 7.92 0 12 0 C12.33 1.32 12.66 2.64 13 4 C11.68 4 10.36 4 9 4 C8.67 3.34 8.34 2.68 8 2 C5.36 2 2.72 2 0 2 C0 1.34 0 0.68 0 0 Z " fill="#E48633" transform="translate(287,202)"/>
<path d="M0 0 C4.21422242 2.88341534 5.76075855 5.04303419 7 10 C5.82174642 9.09827532 4.65768423 8.17798498 3.5 7.25 C2.8503125 6.73953125 2.200625 6.2290625 1.53125 5.703125 C0 4 0 4 0 0 Z " fill="#E19A52" transform="translate(486,234)"/>
<path d="M0 0 C-0.66 1.32 -1.32 2.64 -2 4 C-5.3 4 -8.6 4 -12 4 C-12 3.67 -12 3.34 -12 3 C-8.97265625 2.26757812 -8.97265625 2.26757812 -5.9453125 1.53515625 C-0.3649635 0 -0.3649635 0 0 0 Z " fill="#DC9B54" transform="translate(166,297)"/>
<path d="M0 0 C0 1.65 0 3.3 0 5 C0.99 4.67 1.98 4.34 3 4 C3.33 4.99 3.66 5.98 4 7 C1.03 6.505 1.03 6.505 -2 6 C-2 5.01 -2 4.02 -2 3 C-2.66 2.67 -3.32 2.34 -4 2 C-1 0 -1 0 0 0 Z " fill="#E98120" transform="translate(310,239)"/>
<path d="M0 0 C0.78375 0.04125 1.5675 0.0825 2.375 0.125 C1.59125 0.888125 0.8075 1.65125 0 2.4375 C-2.69757717 5.03391805 -2.69757717 5.03391805 -4.625 8.125 C-4.75 5.25 -4.75 5.25 -4.625 2.125 C-2.625 0.125 -2.625 0.125 0 0 Z " fill="#DD8F42" transform="translate(106.625,235.875)"/>
<path d="M0 0 C0.33 0 0.66 0 1 0 C1 2.64 1 5.28 1 8 C0.34 7.01 -0.32 6.02 -1 5 C-1 6.32 -1 7.64 -1 9 C-1.66 9 -2.32 9 -3 9 C-3 6.69 -3 4.38 -3 2 C-2.01 2 -1.02 2 0 2 C0 1.34 0 0.68 0 0 Z " fill="#E9A763" transform="translate(294,219)"/>
<path d="M0 0 C2.95183101 2.95183101 3.08663988 5.95511947 4 10 C3.01 9.67 2.02 9.34 1 9 C-0.4783226 6.04335481 -0.06032783 3.25770263 0 0 Z " fill="#E5A25F" transform="translate(465,232)"/>
<path d="M0 0 C2.50298434 2.93828597 3.46930939 5.17902761 4 9 C2.68 8.67 1.36 8.34 0 8 C0 5.36 0 2.72 0 0 Z " fill="#E39D5C" transform="translate(311,232)"/>
<path d="M0 0 C2.10353495 -0.0810206 4.20795952 -0.13919907 6.3125 -0.1875 C7.48425781 -0.22230469 8.65601562 -0.25710937 9.86328125 -0.29296875 C13 0 13 0 14.91796875 1.51171875 C15.27503906 2.00285156 15.63210937 2.49398437 16 3 C15.01 3 14.02 3 13 3 C12.67 2.67 12.34 2.34 12 2 C9.98405418 1.76572222 7.961526 1.58663876 5.9375 1.4375 C4.83277344 1.35371094 3.72804688 1.26992187 2.58984375 1.18359375 C1.73519531 1.12300781 0.88054688 1.06242188 0 1 C0 0.67 0 0.34 0 0 Z " fill="#D4985D" transform="translate(63,235)"/>
<path d="M0 0 C0.66 0.33 1.32 0.66 2 1 C1.690625 1.721875 1.38125 2.44375 1.0625 3.1875 C0.07439461 5.80307309 -0.5287754 8.25118982 -1 11 C-1.66 11 -2.32 11 -3 11 C-2.69078116 9.54096742 -2.37751201 8.08279278 -2.0625 6.625 C-1.88847656 5.81289062 -1.71445312 5.00078125 -1.53515625 4.1640625 C-1 2 -1 2 0 0 Z " fill="#E78830" transform="translate(286,204)"/>
<path d="M0 0 C6.15234375 0.5859375 6.15234375 0.5859375 8 1 C8.33 1.66 8.66 2.32 9 3 C6.03 3 3.06 3 0 3 C0 2.01 0 1.02 0 0 Z " fill="#ED801B" transform="translate(334,203)"/>
<path d="M0 0 C2.00720923 0.28674418 4.0085944 0.61866701 6 1 C5.67 1.99 5.34 2.98 5 4 C3.68 4 2.36 4 1 4 C1 3.34 1 2.68 1 2 C0.34 1.67 -0.32 1.34 -1 1 C-0.67 0.67 -0.34 0.34 0 0 Z " fill="#E28634" transform="translate(145,162)"/>
<path d="M0 0 C0.66 0.33 1.32 0.66 2 1 C2.59355614 3.64860427 2.74209269 6.29197322 3 9 C2.34 8.67 1.68 8.34 1 8 C1 7.34 1 6.68 1 6 C0.34 6 -0.32 6 -1 6 C-0.67 4.02 -0.34 2.04 0 0 Z " fill="#E5A053" transform="translate(344,222)"/>
<path d="M0 0 C1.9451 2.91765 2.45276317 4.62537285 3 8 C2.01 8.495 2.01 8.495 1 9 C1 8.34 1 7.68 1 7 C0.34 6.67 -0.32 6.34 -1 6 C-0.67 4.02 -0.34 2.04 0 0 Z " fill="#E3862F" transform="translate(101,278)"/>
<path d="M0 0 C0.99 0 1.98 0 3 0 C3 1.98 3 3.96 3 6 C2.01 6 1.02 6 0 6 C0 4.02 0 2.04 0 0 Z " fill="#D18C45" transform="translate(28,192)"/>
</svg>
